<svg id="Calque_1" data-name="Calque 1" xmlns="http://www.w3.org/2000/svg" viewBox="0 0 137.72 140.99"><defs><style>.cls-1{fill:#e0dad1;}.cls-2{fill:#96b296;}</style></defs><title>Ail</title><path class="cls-1" d="M74.6,129.5a77.38,77.38,0,0,0-.6-11.9,54,54,0,0,0-8.5-21.7c-3.9-5.8-7.7-11.6-11.6-17.4-.7-1.2-8.9-16.8,0-31.1,5.5-8.9,14.4-12.3,16.2-13,7.8-2.9,14.7-2,20-1.4a57.62,57.62,0,0,1,15.2,4.1c3.2,2.4,6.5,4.8,9.7,7.2a38.87,38.87,0,0,1,6.3,16.3c1.9,15-6.5,26.2-8.8,29-9.4,18.3-10.7,27.7-9.8,32.9a32.12,32.12,0,0,1,0,10.5c-.5,3.5-1.1,6.6-3.6,9.2-3.2,3.2-7.8,3.6-9.5,3.7-3.9,0-7.7,0-11.6.1-1.6-.5-3.2-1-4.7-1.5A93.86,93.86,0,0,0,74.6,129.5Z" transform="translate(-6.28 -5.01)"/><path class="cls-1" d="M61.8,32.9c1.5,2.7-6,8.8-8.6,10.9a39.45,39.45,0,0,0-5.3,19.4c0,12,6,21.3,8.7,25.3,4,6.1,5.4,5.7,8.6,11.6,3.9,7.1,4.9,13.3,5.8,18.8a78.45,78.45,0,0,1,.1,23.5c-.2.9-.5,1.8-.7,2.7a9.45,9.45,0,0,1-3,.7,13.59,13.59,0,0,1-11.3-4.2c-2.1-2.3-3.1-5.4-2.9-9.3.5-10.5-3.4-18.3-12.8-24.2-7-4.4-13.5-9.6-20.1-14.7C9.5,85.4,8,78.1,7.5,76.4a27.71,27.71,0,0,1-1.2-9A31.07,31.07,0,0,1,9.8,53.1c4.9-9.5,13.3-14,16.4-15.5a139.88,139.88,0,0,1,20-4.7C54,31.7,60.6,30.7,61.8,32.9Z" transform="translate(-6.28 -5.01)"/><path class="cls-1" d="M107.7,108c-2.9-3.8,7.1-14.1,8-15,3.5-5.3,8.8-14.9,9.5-26.7A40.56,40.56,0,0,0,118.7,41l-3.6-4.2c-2.2-1.8-2.4-2.4-2.3-2.7.6-.9,7.2,1.2,12.6,4.3a36.38,36.38,0,0,1,5.8,4.1A35.89,35.89,0,0,1,144,68.2c-.3,15.9-13.6,25.1-15.1,26-1.7,1.3-3.5,2.6-5.2,3.8-.7.9-9.5,12.6-14.6,10.8C108.8,108.9,108.2,108.7,107.7,108Z" transform="translate(-6.28 -5.01)"/><path class="cls-2" d="M80.8,6.5c2.5,2.2,2.8,4.9,7.9,11.9a99.82,99.82,0,0,0,9.6,11.1,6.37,6.37,0,0,1-.7.2c-.2,0-.5.1-.7.1-5.2-.4-10.4-.8-15.6-1.3A5.5,5.5,0,0,1,77,26.6a10,10,0,0,1-2.3-3.5c-1.2-2.6-.3-5.5-1.2-8.1-.7-2.1-2.6-2.8-2.4-3.5C72,8.9,75.6,2,80.8,6.5Z" transform="translate(-6.28 -5.01)"/></svg>