<svg id="Calque_1" data-name="Calque 1" xmlns="http://www.w3.org/2000/svg" viewBox="0 0 142.2 139.07"><defs><style>.cls-1{fill:#5e3368;}.cls-2{fill:#568b2f;}</style></defs><title>Aubergine</title><path class="cls-1" d="M128.1,62.1c-11.3,22.5-24.2,44-40.6,63.2C80.1,134,71.9,141.8,60,144.1c-13.8,2.6-26.1-1.2-37.5-8.9C1,120.6-.3,89,13.6,71.4,18.5,65.2,24.9,61,32,58c16.1-6.7,29.8-17,43.6-27.4,3.9-2.9,8.1-5.5,12.1-8.3,3.6,3.7,7.4,7.1,13,7.7.7.1,1.7,1.7,1.9,2.7,1,4.7,3.2,8.7,7.3,11.2,2.8,1.7,6.2,2.6,9.5,3.9C119.7,54,123.1,58.5,128.1,62.1Z" transform="translate(-4.5 -5.84)"/><path class="cls-2" d="M128.1,69.7a22.19,22.19,0,0,1-7.3-7.3,21,21,0,0,1-3-9.6c-1.4-.5-3.5-1.2-5.9-2.2a40.45,40.45,0,0,1-5.5-2.5c-4.9-2.9-7.5-7.7-8.7-13.3-.3-1.2-1.4-3.2-2.2-3.2-6.6-.7-11.1-4.8-15.5-9.2-4.7-6.7-4.3-9.4-3.5-10.7C79,7.8,90.7,9.9,100,11.4c3.4.6,6.1,1.2,10.1.8,3.5-.3,4.5-1.1,8.1-1s4.3,1,6.7.5c2.9-.6,3.6-2.3,6-3.8,5.6-3.4,14.3-2.2,15.6.8,1,2.4-2.2,6.4-2.5,6.8-.8,1-1.4,1.4-2.9,3.1,0,0-1.3,1.6-2.5,3.4-3.4,5.1-3.8,12.9-3.8,12.9-.9,15.1,7.8,34.4,3.3,37.7C136.8,73.7,134.3,73.8,128.1,69.7Z" transform="translate(-4.5 -5.84)"/></svg>