<svg id="Calque_1" data-name="Calque 1" xmlns="http://www.w3.org/2000/svg" viewBox="0 0 127.83 195.5"><defs><style>.cls-1{fill:#6b1c46;}.cls-2{fill:#96b296;}.cls-3{fill:#697f8c;}.cls-4{fill:#015b7e;}.cls-5{fill:#8bc440;}.cls-6{fill:#bbe3f6;}</style></defs><title>Betterave</title><path class="cls-1" d="M136.1,61.3c-.8-1.5-1.7-3-2.5-4.4h0l-1-1a75.39,75.39,0,0,0-19.2-15.2c-1.3-.7-2.7-1.4-4-2.1-2.2-1-4.4-1.7-5.5-4-.5-.9-2-1.4-3-2.1-1.3-.5-3.2.4-4.3-.8h-.7a4.27,4.27,0,0,1-2.4-.7c-5.8-.1-11.5-.6-17.3-1-4.4-.3-8.8.6-13.2.5a4.22,4.22,0,0,1-3.3,1.6c-3.4.1-5.7,1.2-7.2,4-.3.6-1.6.8-2.5,1C39.6,38.9,30.5,43,23.3,50a38.83,38.83,0,0,0-9.2,13.9C9.6,77,13.2,88.4,23.3,98.2a44.76,44.76,0,0,0,18.5,11.2C50,112,57.2,116,62.5,122.3c2,2.4,3.3,5.3,4.9,7.9v.1a68.67,68.67,0,0,1,2.7,8.8,5.44,5.44,0,0,1,1.1,1.8,26.17,26.17,0,0,1,.7,7.9,36.76,36.76,0,0,0,2.6-8.2,39.41,39.41,0,0,1,2.4-15.2c2.1-6.1,6.2-9.8,13.7-11.2a83.4,83.4,0,0,0,34.1-14.7,41.16,41.16,0,0,0,12.4-13.6C141.6,77.7,140.6,69.5,136.1,61.3Z" transform="translate(-12.19 46.7)"/><path class="cls-2" d="M68.6,9.9C71,11.7,71.7,14,77,19.8A96.86,96.86,0,0,0,86.7,29c-.2.1-.3.1-.5.2s-.3.1-.5.1L73,28.4a5.07,5.07,0,0,1-3.8-1.6,14.18,14.18,0,0,1-2.5-2.9c-1.4-2.2-1.2-4.6-2.4-6.8-1-1.8-2.6-2.3-2.5-3C62,12,63.7,6.2,68.6,9.9Z" transform="translate(-12.19 46.7)"/><path class="cls-2" d="M87.2,29.6c-1.6.9-2.6-1.7-6.7-2.7a13.64,13.64,0,0,0-7.1.5c.1-.4.1-.7.2-1.1s.1-.7.2-1c2-6.5,4.1-13.1,6.1-19.6.1-.4.8-3.2,2.2-3.7.4-.1.9-.2,2,.9,1.3,1.3,1.9,5.9,3,7.5.9,1.4,1.8-.4,2,.8C89.7,15.1,90.6,27.8,87.2,29.6Z" transform="translate(-12.19 46.7)"/><path class="cls-3" d="M31.7,97.5c-3-.4-3.9-2-2.4-3.8A33.61,33.61,0,0,0,31.7,97.5Z" transform="translate(-12.19 46.7)"/><path class="cls-4" d="M67.9-20.1a5.58,5.58,0,0,0,.5.8A2.18,2.18,0,0,1,67.9-20.1Z" transform="translate(-12.19 46.7)"/><path class="cls-3" d="M127.9,58a9,9,0,0,1,.9,1A9,9,0,0,0,127.9,58Z" transform="translate(-12.19 46.7)"/><path class="cls-4" d="M99.9-22.5a.22.22,0,0,1,.2-.2A.22.22,0,0,1,99.9-22.5Z" transform="translate(-12.19 46.7)"/><path class="cls-4" d="M67.4-21.1a.37.37,0,0,1,.1.3A.37.37,0,0,1,67.4-21.1Z" transform="translate(-12.19 46.7)"/><path class="cls-4" d="M100.7-23.7c0-.1.1-.2.2-.3C100.9-23.8,100.9-23.7,100.7-23.7Z" transform="translate(-12.19 46.7)"/><path class="cls-5" d="M94.6-6.5c-.1.3-.3.7-.4,1C94.3-5.8,94.5-6.2,94.6-6.5Z" transform="translate(-12.19 46.7)"/><path class="cls-4" d="M102.5-23.6Z" transform="translate(-12.19 46.7)"/><path class="cls-4" d="M101.2-24.4Z" transform="translate(-12.19 46.7)"/><path class="cls-6" d="M87.5-36.7c.1.1.1.3.2.4C87.6-36.4,87.6-36.5,87.5-36.7Z" transform="translate(-12.19 46.7)"/><path class="cls-6" d="M105.3-45.9c0-.3-.1-.6-.1-.8A2.2,2.2,0,0,1,105.3-45.9Z" transform="translate(-12.19 46.7)"/></svg>