<svg id="Calque_1" data-name="Calque 1" xmlns="http://www.w3.org/2000/svg" viewBox="0 0 143.26 144.18"><defs><style>.cls-1{fill:#e29460;}.cls-2{fill:#96b296;}</style></defs><title>Carotte</title><path class="cls-1" d="M43.8,55.8a27.51,27.51,0,0,1,10.6,5.8c6,5.3,7.5,11.6,9.5,11.1,1.5-.3,2.7-4.5,1.6-8.1S61,58.3,51.7,50.3a4.32,4.32,0,0,1-1.8-3c0-1.5,1.4-2.6,2.1-3.1,1-.8,21.3-16.4,42.3-7.7,2.4,1,11,4.7,16.3,13.7,11.2,18.9.1,48.1-14.8,56.4-4.8,2.7-16.5,6.8-21.5,10.6a23.35,23.35,0,0,1-7.4,3.7c-1.2.3-2.2.5-2.8.6-1.6.7-3.2,1.4-4.8,2.2-.5-2.3-4.3-17.3-12-18.2-2.2-.3-5.2.6-5.3,1.6-.1,1.2,3.7,1.9,6.6,4.1,2.6,2,5.5,6.2,5.8,15.5-3,1.6-5.5,2.9-7.2,3.8-18.3,9.5-26.1,12.7-30.9,15-.7.4-1.5.7-2.2,1.1a8.36,8.36,0,0,1-5.7.8A8.3,8.3,0,0,1,5,145.2c-.1-.1-.2-.2-.2-.3A7.11,7.11,0,0,1,3.3,142c-.6-2.5.7-4.8,1.1-5.6,3.7-6.9,5.8-14.8,10.4-21.2.6-.9,8.4-16.9,23.9-49.1C40.9,61.8,42.7,58.1,43.8,55.8Z" transform="translate(-3.14 -3.44)"/><path class="cls-2" d="M117.7,31.3c1.2,2,8-2.2,16.1-1,5.6.8,12.4,4.3,12.6,8.2.1,4.3-7.7,7.8-12.2,9a23.58,23.58,0,0,1-13-.3,30.23,30.23,0,0,1-15.4-11.5,29.19,29.19,0,0,1-4.5-11.3v-.3c-.1-1.8-.1-3.6-.2-5.4v-.9c.6-3.7,2.2-10.6,7.8-14h0a2.26,2.26,0,0,1,2.6.1,5.55,5.55,0,0,0,.8.6c5.4,4.4,6.6,10.8,7,12.8a22.76,22.76,0,0,1-.5,10.4l-.3.6C117.9,29.3,117.3,30.5,117.7,31.3Z" transform="translate(-3.14 -3.44)"/></svg>