<svg id="Calque_1" data-name="Calque 1" xmlns="http://www.w3.org/2000/svg" viewBox="0 0 144.71 137.32"><defs><style>.cls-1{fill:#568b2f;}.cls-2{fill:#a8e55f;}.cls-3{fill:#8bc24a;}.cls-4{fill:#bbf07b;}.cls-5{fill:#b3e874;}.cls-6{fill:#99d359;}</style></defs><title>Choux</title><path class="cls-1" d="M34.8,133c-.2.1,9.3,4.6,9.2,4.8a87.26,87.26,0,0,0,15.8,4.8,94.31,94.31,0,0,0,21.9,1.6,73.73,73.73,0,0,0,11.5-1.4c1.1-.2,2-.6,2.1-1.9.2.1.3.1.4.2a8.06,8.06,0,0,0,7.9,1.2,46.79,46.79,0,0,0,10.8-5.2,59.35,59.35,0,0,0,15.4-13.3A70.88,70.88,0,0,0,141,105.4a74.8,74.8,0,0,0,4.6-15.5c.5-2.7.8-5.5,1.1-8.3a73,73,0,0,0-.1-15.5,83.48,83.48,0,0,0-4.1-18.6,76.89,76.89,0,0,0-5.7-12.8,64.94,64.94,0,0,0-10.7-14.8c-1.3.3-2.6.7-3.9,1l-3,.6a5.2,5.2,0,0,0-4.5,4.3,9.56,9.56,0,0,1-3.6,5c-1.6,1.2-3.4,2.2-5.1,3.3a13.17,13.17,0,0,0-5.8,6.5A5.93,5.93,0,0,1,97,44c-1.5.7-3,1.3-4.5,1.9a9.75,9.75,0,0,0-5.9,6,10.34,10.34,0,0,0,.4,8.6,11.9,11.9,0,0,1,1.1,4.1,6.41,6.41,0,0,1-1.8,4.3c-1.8,2.3-3.8,4.5-5.5,6.9a29.63,29.63,0,0,0-5.3,11.7,14.56,14.56,0,0,0,0,5.1c.6,2.7,2.5,4.2,5.4,4.5,2.1.3,4.2.4,6.4.7,3.2.4,4.7,3.1,3.3,6.1-.9,1.9-2.2,3.6-3.1,5.4-.6,1.1-1.2,2.4-.6,3.7a7,7,0,0,0,1.7,2.4,4.21,4.21,0,0,1,1.5,4.9,28.68,28.68,0,0,0-.5,3.1,6.77,6.77,0,0,0,2.8,4.5,57,57,0,0,1,4.3,4.2c1.5,1.8,1.2,5.6-.7,6.9a2.3,2.3,0,0,1-2.4.1,9.84,9.84,0,0,1-3.4-3c-2.1-2.9-4-5.9-6-8.9-.2-.3-.3-.7-.5-1a14.31,14.31,0,0,1-1.1-1.5c-1.5-3-3-5.9-4.4-8.9-1.2-2.7-2.2-5.6-3.3-8.4-.6-.4-1.1-.7-1.7-1.1-.3-.2-.5-.3-.8-.5-1.7.9-3.5.5-5.2.1-1.1-.3-2.2-.6-3.3-.8a10.45,10.45,0,0,0-4.3.6,7.85,7.85,0,0,1-2.2.5,3,3,0,0,1-3-1.3c-.4-.6-.8-1.1-1.2-1.7-1.5-2.5-3-3.1-6.1-2.4-1.3.3-2.7.6-4,.8a4.26,4.26,0,0,1-5.2-2.8c-.5-1.1-.9-2.3-1.4-3.4-1.3-2.6-2.9-3.3-5.4-1.9-3.5,1.9-7.6.7-10.2-1.7S17,86,16.2,82.6c-.5-1.9-.9-3.8-1.4-5.7a8.87,8.87,0,0,0-1.4-2.5,2.68,2.68,0,0,0-4.2-.2,5.24,5.24,0,0,0-1,1.1,3.42,3.42,0,0,1-2.7,1.2A39.57,39.57,0,0,0,5,81.2,51.83,51.83,0,0,0,6.2,94.8a51.28,51.28,0,0,0,4.3,12.1,64.16,64.16,0,0,0,5,8.4,78.82,78.82,0,0,0,7,8.3,45.34,45.34,0,0,0,5.7,5,58.24,58.24,0,0,0,6.6,4.4c.1,0,0,.3,0,.2M21.5,103.1l-.1-.1a.1.1,0,0,1,.2,0C21.6,103.1,21.5,103.2,21.5,103.1Zm77.4,37.8c-.3,0-.5-.1-.8-.1v-.2c.3,0,.5.1.8.1Z" transform="translate(-2.36 -6.96)"/><path class="cls-2" d="M33.7,71.2h0c.4-.3.8-.8,1.1-.8m-2.5,4.8a12.13,12.13,0,0,1-1-1.4c-.8-1.2-1.7-2.3-2.4-3.6-1.5-2.5-3-4.9-4.4-7.5-1.6-3-3.1-6-4.4-9.1-1.1-2.6-2-5.2-3-7.8A23.29,23.29,0,0,1,16,43a78.83,78.83,0,0,1,9.2-12.3A77.45,77.45,0,0,1,42.3,16.6,73.12,73.12,0,0,1,58.5,9.5,62,62,0,0,1,74,7,67.1,67.1,0,0,1,90.1,8.5c2.4.5,4.6,1.4,6.9,2.1l1.8.6.7,1.4a3.51,3.51,0,0,0,.5-.8c.9.4,1.9.7,2.8,1.1a3.59,3.59,0,0,1-.7,1c-1.4,1.1-2.9,2-4.2,3.2a79.31,79.31,0,0,0-7,7.2c-2.5,3.1-4.8,6.4-7,9.7a72.81,72.81,0,0,0-4,7.2c-1.4,2.8-2.6,5.7-3.8,8.6-.9,2.3-1.5,4.6-2.2,7-.5,1.6-1,3.3-1.4,4.9a53.4,53.4,0,0,0-.9,5.3,85.83,85.83,0,0,0-1,8.7,100.5,100.5,0,0,0,.2,11,70.6,70.6,0,0,0,1.1,9.1c.8,3.8,1.9,7.6,2.9,11.4-.6-.4-1.1-.7-1.7-1.1-.3-.2-.5-.3-.8-.5.1-.2.1-.4.3-.6a2.67,2.67,0,0,0-1-4.1,10.21,10.21,0,0,0-2.9-1.1c-2.5-.6-5-.9-7.3-2-2.7-1.2-5.4-2.4-8.1-3.7A37,37,0,0,1,50,92a37.13,37.13,0,0,1-4.1-2.8c-2.3-1.9-4.5-3.8-6.7-5.8a27.55,27.55,0,0,1-2.9-3c-1.3-1.5-2.5-3-3.8-4.5a5.39,5.39,0,0,1-.7-1.3h0M72.6,32.2h0c-.1,0-.2,0-.2-.1A.31.31,0,0,1,72.6,32.2ZM99,13.2c0-.1,0-.2.1-.2l-1.2-.3c0,.1,0,.2-.1.2A2.66,2.66,0,0,1,99,13.2Z" transform="translate(-2.36 -6.96)"/><path class="cls-3" d="M75,107.4c-1-3.8-2.1-7.6-2.9-11.4A68.53,68.53,0,0,1,71,86.9c-.2-3.7-.3-7.4-.2-11a85.83,85.83,0,0,1,1-8.7,45.07,45.07,0,0,1,.9-5.3c.4-1.7.9-3.3,1.4-4.9.7-2.3,1.3-4.7,2.2-7a93.66,93.66,0,0,1,3.8-8.6,63,63,0,0,1,4-7.2c2.2-3.3,4.5-6.6,7-9.7a79.31,79.31,0,0,1,7-7.2c1.3-1.2,2.8-2.1,4.2-3.2a3.59,3.59,0,0,0,.7-1,5.85,5.85,0,0,0,1.3-.2,26.15,26.15,0,0,1,7.1-3,18.86,18.86,0,0,1,10-.1,10,10,0,0,1,6.4,5.1c.8,1.8.5,2.9-.9,4.3-.3.3-.4.6-.7.9-1.3.3-2.6.7-3.9,1l-3,.6a5.2,5.2,0,0,0-4.5,4.3,9.56,9.56,0,0,1-3.6,5c-1.6,1.2-3.4,2.2-5.1,3.3a13.17,13.17,0,0,0-5.8,6.5,5.93,5.93,0,0,1-3.2,3.4c-1.5.7-3,1.3-4.5,1.9a9.75,9.75,0,0,0-5.9,6,10.34,10.34,0,0,0,.4,8.6,11.9,11.9,0,0,1,1.1,4.1,6.41,6.41,0,0,1-1.8,4.3c-1.8,2.3-3.8,4.5-5.5,6.9a29.63,29.63,0,0,0-5.3,11.7,14.56,14.56,0,0,0,0,5.1c.6,2.7,2.5,4.2,5.4,4.5,2.1.3,4.2.4,6.4.7,3.2.4,4.7,3.1,3.3,6.1-.9,1.9-2.2,3.6-3.1,5.4-.6,1.1-1.2,2.4-.6,3.7a7,7,0,0,0,1.7,2.4,4.21,4.21,0,0,1,1.5,4.9,28.68,28.68,0,0,0-.5,3.1l-.9.3-3,1.5a19.83,19.83,0,0,0-2,1.1,14.31,14.31,0,0,1-1.1-1.5c-1.5-3-3-5.9-4.4-8.9S76.1,110.2,75,107.4Z" transform="translate(-2.36 -6.96)"/><path class="cls-3" d="M32.1,74.8a8.26,8.26,0,0,0,.7,1.3c1.2,1.5,2.5,3,3.8,4.5a41.07,41.07,0,0,0,2.9,3c2.2,2,4.4,3.9,6.7,5.8,1.3,1,2.7,1.9,4.1,2.8,1.1.7,2.2,1.5,3.3,2.1,2.7,1.3,5.4,2.5,8.1,3.7,2.3,1.1,4.8,1.4,7.3,2a10.21,10.21,0,0,1,2.9,1.1c1.7,1,1.9,2.5,1,4.1l-.3.6c-1.7.9-3.5.5-5.2.1-1.1-.3-2.2-.6-3.3-.8a10.45,10.45,0,0,0-4.3.6,7.85,7.85,0,0,1-2.2.5,3,3,0,0,1-3-1.3c-.4-.6-.8-1.1-1.2-1.7-1.5-2.5-3-3.1-6.1-2.4-1.3.3-2.7.6-4,.8a4.26,4.26,0,0,1-5.2-2.8c-.5-1.1-.9-2.3-1.4-3.4-1.3-2.6-2.9-3.3-5.4-1.9-3.5,1.9-7.6.7-10.2-1.7s-3.9-5.8-4.7-9.2c-.5-1.9-.9-3.8-1.4-5.7a8.87,8.87,0,0,0-1.4-2.5,2.68,2.68,0,0,0-4.2-.2,5.24,5.24,0,0,0-1,1.1,3.42,3.42,0,0,1-2.7,1.2c-1.9-.7-3.2-1.9-3.3-4a6.1,6.1,0,0,1,.4-3A42.85,42.85,0,0,1,5.9,64a10.34,10.34,0,0,0,1.6-8A10.78,10.78,0,0,1,9.7,46a21.3,21.3,0,0,1,3.1-2.9,2.29,2.29,0,0,1,2.5-.4,1.48,1.48,0,0,0,.7.1,23.29,23.29,0,0,1,1.1,2.8c1,2.6,1.9,5.3,3,7.8,1.4,3.1,2.8,6.2,4.4,9.1,1.4,2.6,2.9,5,4.4,7.5.7,1.2,1.6,2.4,2.4,3.6a.76.76,0,0,0,.5.2C31.9,74.2,32,74.5,32.1,74.8Z" transform="translate(-2.36 -6.96)"/><path class="cls-4" d="M100.1,11.8a5.58,5.58,0,0,0-.5.8,9.14,9.14,0,0,1-.7-1.4Z" transform="translate(-2.36 -6.96)"/><path class="cls-5" d="M83.7,126.2c.7-.4,1.3-.7,2-1.1l3-1.5.9-.3a6.77,6.77,0,0,0,2.8,4.5,57,57,0,0,1,4.3,4.2c1.5,1.8,1.2,5.6-.7,6.9a2.3,2.3,0,0,1-2.4.1,9.84,9.84,0,0,1-3.4-3c-2.1-2.9-4-5.9-6-8.9A1.93,1.93,0,0,1,83.7,126.2Z" transform="translate(-2.36 -6.96)"/><path class="cls-5" d="M120,67a11.94,11.94,0,0,0-1.6-.8C118.9,66.4,119.4,66.7,120,67Z" transform="translate(-2.36 -6.96)"/><path class="cls-2" d="M60.5,110.5h0c-.2.2-.4.3-.6.5C60.2,110.9,60.3,110.7,60.5,110.5Z" transform="translate(-2.36 -6.96)"/><path class="cls-5" d="M98.9,140.9c-.3,0-.5-.1-.8-.1v-.2c.3,0,.5.1.8.1Z" transform="translate(-2.36 -6.96)"/><path class="cls-2" d="M142.7,93.3c-.1.1-.1.2-.2.3l-.1-.1c.2-.1.3-.1.3-.2Z" transform="translate(-2.36 -6.96)"/><path class="cls-4" d="M21.6,103.1s-.1.1-.1,0l-.1-.1a.1.1,0,0,0,.1-.1C21.6,103,21.6,103,21.6,103.1Z" transform="translate(-2.36 -6.96)"/><path class="cls-4" d="M116.4,65.6v0Z" transform="translate(-2.36 -6.96)"/><path class="cls-2" d="M143.8,92.2Z" transform="translate(-2.36 -6.96)"/><path class="cls-4" d="M51.5,59.4a12.44,12.44,0,0,1-.4-1.6C50.2,58.3,50.3,58.5,51.5,59.4Z" transform="translate(-2.36 -6.96)"/><path class="cls-5" d="M50.4,53.4c.4.3.7.7,1.1,1v.2l-.7.7c-.1-.1-.2-.1-.3-.2s-.1-.5-.2-.7c.1-.3.1-.6.2-.9C50.4,53.5,50.4,53.5,50.4,53.4Z" transform="translate(-2.36 -6.96)"/><path class="cls-4" d="M99,13.2l-1.2-.3c0-.1,0-.2.1-.2l1.2.3C99,13,99,13.1,99,13.2Z" transform="translate(-2.36 -6.96)"/><path class="cls-4" d="M38.8,72.2v.4a2.19,2.19,0,0,0-.3-.5.44.44,0,0,0,.3.1Z" transform="translate(-2.36 -6.96)"/><path class="cls-6" d="M38.1,66.3l.5-.5h0a1.21,1.21,0,0,0-.5.5Z" transform="translate(-2.36 -6.96)"/><path class="cls-6" d="M38.4,72c.1-.1.1-.2.2-.3,0,.1.1.3.1.4" transform="translate(-2.36 -6.96)"/><path class="cls-6" d="M38.1,69.2a1.76,1.76,0,0,1,.5.4A1,1,0,0,1,38.1,69.2Z" transform="translate(-2.36 -6.96)"/><path class="cls-6" d="M37,75l.4-.4C37.3,74.8,37.1,74.9,37,75Z" transform="translate(-2.36 -6.96)"/><path class="cls-6" d="M36.7,67.7v0Z" transform="translate(-2.36 -6.96)"/><path class="cls-6" d="M37.7,68.9l.4.4C38,69.1,37.8,69,37.7,68.9Z" transform="translate(-2.36 -6.96)"/><path class="cls-6" d="M37.9,71.7v-.3c.1.1.1.2.2.4-.1-.1-.1-.1-.2-.1Z" transform="translate(-2.36 -6.96)"/><path class="cls-6" d="M39.5,70.6l.4.4A.78.78,0,0,1,39.5,70.6Z" transform="translate(-2.36 -6.96)"/><path class="cls-5" d="M23.1,45.2c-.1-.1-.2-.1-.3-.2l.1-.1c.1.1.1.2.2.3Z" transform="translate(-2.36 -6.96)"/><path class="cls-4" d="M35.3,76.2c0,.1,0,.2-.1.2a.35.35,0,0,0,.1-.2Z" transform="translate(-2.36 -6.96)"/><path class="cls-5" d="M33.4,71.3c.1-.1.2-.1.4-.2C33.6,71.2,33.5,71.3,33.4,71.3Z" transform="translate(-2.36 -6.96)"/><path class="cls-4" d="M38.6,73.1c-.1.1-.3.1-.4.2C38.4,73.2,38.5,73.1,38.6,73.1Z" transform="translate(-2.36 -6.96)"/><path class="cls-4" d="M32.1,72.7c.1-.1.1-.2.2-.4A.52.52,0,0,1,32.1,72.7Z" transform="translate(-2.36 -6.96)"/><path class="cls-5" d="M72.6,32.2c-.1,0-.2,0-.2-.1a.31.31,0,0,1,.2.1Z" transform="translate(-2.36 -6.96)"/><path class="cls-6" d="M33.9,70.5l-.2.2C33.8,70.6,33.8,70.5,33.9,70.5Z" transform="translate(-2.36 -6.96)"/><path class="cls-6" d="M37.9,71.2l-.2-.2Z" transform="translate(-2.36 -6.96)"/><path class="cls-4" d="M37.9,71.7h0Z" transform="translate(-2.36 -6.96)"/><path class="cls-5" d="M72.6,32.2Z" transform="translate(-2.36 -6.96)"/><path class="cls-4" d="M32.3,72.4l.2-.2Z" transform="translate(-2.36 -6.96)"/><path class="cls-5" d="M47.1,129.5c.1.1.2.1.3.2C47.4,129.6,47.2,129.6,47.1,129.5Z" transform="translate(-2.36 -6.96)"/><path class="cls-6" d="M109.3,124.1A9.43,9.43,0,0,1,111,123c.1,0,.7.6.6.7-.2.4-.5,1-.9,1.1C110.5,125,110,124.5,109.3,124.1Z" transform="translate(-2.36 -6.96)"/><path class="cls-2" d="M50.4,55.2c.1.1.2.1.3.2.1.7.3,1.4-.4,1.9-.2.2-.6.4-.8.3-.4-.3-.7-.7-.3-1.2A6.79,6.79,0,0,0,50.4,55.2Z" transform="translate(-2.36 -6.96)"/><path class="cls-5" d="M51.5,59.4c-1.2-.9-1.3-1.1-.4-1.6A12.44,12.44,0,0,0,51.5,59.4Z" transform="translate(-2.36 -6.96)"/><path class="cls-2" d="M48,59.9A6.28,6.28,0,0,1,46.5,61c-.1,0-.8-.7-.7-.9A3.84,3.84,0,0,1,46.9,59C47.1,59,47.5,59.5,48,59.9Z" transform="translate(-2.36 -6.96)"/></svg>