<svg id="Calque_1" data-name="Calque 1" xmlns="http://www.w3.org/2000/svg" viewBox="0 0 140.04 139.74"><defs><style>.cls-1{fill:#eaba65;}.cls-2{fill:#96b296;}</style></defs><title>Citrouille</title><path class="cls-1" d="M50.6,128.8c3.7,7.2,5.5,10.7,5.2,11.6-1.5,4.4-23.8,5.6-38.1-9C4.6,118.1,4.8,98.3,4.9,92.4c.2-14.2,5.2-27,13.3-38.2,3.7-5.1,8-8.9,12.9-11a26,26,0,0,1,12.8-2.1,13.7,13.7,0,0,0,1.6.2,4.13,4.13,0,0,1,1.1,2.5c0,1.8-1.7,2.6-3.1,5.2a13.31,13.31,0,0,0-1.3,3.6c-.6,2.3-.7,2.9-.6,2.9a23.89,23.89,0,0,1,2.6-5.1h0a17.38,17.38,0,0,1,1.3-1.5c5.1-5.2,11.7-6.4,16.2-6.6,11.4-1.5,19-1.2,25.1-.2A76.39,76.39,0,0,1,95,44c2.6.7,4.5,1.2,5.8,1.7,6.2,2.4,11.4,9.9,13,17.4,1.6,7.8.9,10.1,1.3,10.2s.8-1.1.6-7.3c-.3-11.6-9.5-19.5-12.5-21.9V44a1.79,1.79,0,0,1,.8-2.7c2.8-.8,5.5-.4,8.2,0,9.8,1.5,16.7,8,22.1,16.8,16.6,26.7,13,55.1-5.7,77.4-9.1,10.9-23.3,12.6-34.7,5.1a4.5,4.5,0,0,0-2.5-.9,4.21,4.21,0,0,0-2.5,1c-2.7,2.2-8.2,3.8-8.9,4.1,0,0-7.5,2.3-18.1-4.4a.31.31,0,0,0-.2-.1,7.28,7.28,0,0,0-.7-.6c-.6-.6-1.2-1-2.4-2.2a5.07,5.07,0,0,1-.6-.7c-1.4-1.6-2.2-2.5-2.6-2.9a38,38,0,0,1-3.2-4.6c-1.8-2.9-4.8-10.1-7.2-20.1a54.55,54.55,0,0,0,2.1,10.4,34.78,34.78,0,0,0,1.2,3.4A27.59,27.59,0,0,0,50.6,128.8Z" transform="translate(-4.88 -5.44)"/><path class="cls-2" d="M84.9,35.7c-1.2,1.3-2.6-1.5-6.4-1.8a9.62,9.62,0,0,0-6.1,1.8,5.7,5.7,0,0,0-.1-1.3V33.2c.5-7.7.9-15.4,1.4-23.1,0-.4,0-3.8,1.2-4.5.3-.2.7-.4,1.9.7,1.4,1.3,2.8,6.3,4.1,7.9,1.1,1.4,1.5-.8,1.9.5C84.1,19,87.5,33,84.9,35.7Z" transform="translate(-4.88 -5.44)"/></svg>