<svg id="Calque_1" data-name="Calque 1" xmlns="http://www.w3.org/2000/svg" viewBox="0 0 143.8 140.52"><defs><style>.cls-1{fill:#8bc24a;}.cls-2{fill:#466d23;}</style></defs><title>Courge</title><path class="cls-1" d="M27.3,146a6,6,0,0,0-1.1-.6,45.06,45.06,0,0,1-16.4-5.7c-.2-.4-.5-.9-.7-1.3-4-5.8-6.2-11.9-5.9-18.6.5-12,7.2-21.2,19.6-27.6,4.2-2.2,8.9-3.7,13.4-5.6A161.15,161.15,0,0,0,78.1,61c9.6-8.2,17.7-16.3,22.2-23.7,0,0,4.5-7.5,9.3-7.5a11.35,11.35,0,0,1,1.4.1,10.36,10.36,0,0,1,2.7.5c2.9.8,7.1-1.3,10.9.1,1.8.6,3.7,2.1,6.5,4.3.2.1.6.4,1.2.7a7.25,7.25,0,0,0,3.9.3c4.3-.7,6.4-3.7,8.4-3.2,2.8.7,2.4,8.2,2.3,9.2a29.19,29.19,0,0,1-2.3,9.7C127.8,86,100.8,114.3,64,136.3c-7.1,4.3-14.4,8.3-23.4,9.4-.2,0-.3.3-.4.5C35.7,146,31.5,146,27.3,146Z" transform="translate(-3.17 -5.68)"/><path class="cls-2" d="M114,13.3c1.9-2.4,5.2-.9,8.4-3.7.7-.6,1.7-1.4,3.3-2.7a4.87,4.87,0,0,1,5.4-.7c3.6,1.6,7.2,3.3,10.9,5a3.35,3.35,0,0,1,2.2,3.8c-1,11.7-2,14.2-1.4,17.1a1.76,1.76,0,0,1-.1,1.4c-.7,1.5-3.1,1-7.4,2.9a3.89,3.89,0,0,1-2.6.6c-.6-.1-1.1-.6-1.9-1.5-3.7-4.1-9-5.5-15.4-3.9-1.4.3-2.6.6-3.7-.5a21.45,21.45,0,0,0-1-4.4c-1.1-3.5-2.4-4.8-1.6-6.4.7-1.2,1.8-.9,3.2-2.4C114,16,112.8,15,114,13.3Z" transform="translate(-3.17 -5.68)"/></svg>