<svg id="Calque_1" data-name="Calque 1" xmlns="http://www.w3.org/2000/svg" viewBox="0 0 143.4 123.49"><defs><style>.cls-1{fill:#8bc24a;}.cls-2{fill:#568b2f;}</style></defs><title>Epinard</title><path class="cls-1" d="M96.3,126.9c6.3-1.9,9.4-.8,11,.5,3.9,2.9,1.8,8,6.7,12.2.7.6,4.4,3.6,8.4,2.6a7.3,7.3,0,0,0,3.5-2c.6-.6,2.5-2.4,2.4-4.4-.2-2.6-3.6-3.4-8.1-7a29.57,29.57,0,0,1-5.9-6.1c-.8-1.8-1.5-3.5-2.3-5.3a34.72,34.72,0,0,0,.8-4.7A41.19,41.19,0,0,0,111.7,99a44.35,44.35,0,0,0-5.5-12.4,27.34,27.34,0,0,1-4.4-16.7c.7-9.2-3.4-15.8-9.4-22.2A60.08,60.08,0,0,1,83.3,35C77.5,24.1,68.4,19.3,56.1,21.4a33.09,33.09,0,0,1-15.3-1.3C20.8,14.1.7,31.7,4.5,51.9c1.2,6.4,3,12.6,1.7,19.2A26.16,26.16,0,0,0,6.1,79c1,8.5,6,14.2,13.6,17.8a45.71,45.71,0,0,1,14.5,10.5c5,5.5,11.2,8.5,18.9,8.3s14.5,1.2,20.9,6.1C80.1,126.6,88.1,126.5,96.3,126.9Z" transform="translate(-4.03 -18.91)"/><path class="cls-2" d="M126.3,122.9c.7-2.6,1-5.1,2.1-7.2,2.6-4.7,5-9.7,8.5-13.7a27,27,0,0,0,6.3-14.6c1-7,2.3-14,3.7-21,1.7-9-.6-16.4-7.3-22.9-3.1-2.9-5.2-7-7.2-10.8-3.7-7-8.5-12.2-16.8-13.5-9.2-1.4-15.9,2.6-20.9,9.9-4,5.8-3.6,7.2,1.2,12.5,2.7,3,5.6,5.9,8.1,9a27.42,27.42,0,0,1,6.6,18.8,67.06,67.06,0,0,0,.8,11,12.13,12.13,0,0,0,2,5.4c7.4,9,8.7,19.6,9,30.6C122.4,120,122.7,120.5,126.3,122.9Z" transform="translate(-4.03 -18.91)"/></svg>