<?xml version="1.0" encoding="utf-8"?>
<!-- Generator: Adobe Illustrator 23.1.0, SVG Export Plug-In . SVG Version: 6.00 Build 0)  -->
<svg version="1.1" id="Calque_1" xmlns="http://www.w3.org/2000/svg" xmlns:xlink="http://www.w3.org/1999/xlink" x="0px" y="0px"
	 viewBox="0 0 150 150" style="enable-background:new 0 0 150 150;" xml:space="preserve">
<style type="text/css">
	.st0{fill:#603F34;}
	.st1{fill:#5F331F;}
	.st2{fill:#4B251B;}
	.st3{fill:#472219;}
	.st4{fill:#4D261B;}
	.st5{fill:#9A6544;}
	.st6{fill:#512A1C;}
	.st7{fill:#683D24;}
	.st8{fill:#4C261B;}
	.st9{fill:#815139;}
	.st10{fill:#421E17;}
	.st11{fill:#683C20;}
	.st12{opacity:0.36;fill:#FFFFFF;}
</style>
<rect class="st0" width="150" height="150"/>
<rect y="29" class="st1" width="150" height="102"/>
<g>
	<path class="st2" d="M0,115.9c3.9-1.5,7.8-2.9,11.8-4.4c3,2.6,6.6,2.6,10.2,2.5c5.6-0.3,11.1-0.1,15.6,4c-0.2,0.2-0.4,0.3-0.6,0.5
		c-1.1-0.2-2.3-0.4-3.5-0.7c0.2,3.1,0.2,3.1,3.4,3c2.9,2.2,3.1,2.2,4.5-0.9c-0.4-0.6-0.8-1.1-1.2-1.7c-0.8-0.2-1.5-0.4-2.3-0.6
		c0.3-3.2,2.2-2.6,4.1-1.8c1.2,0.5,2.3,1.2,3.5,1.8c0.8,0.3,1.8,1,2.3,0.7c0.6-0.3,1.3-1.7,1.1-2.2c-0.4-0.9-1.5-1.6-2.3-2.3
		c3.1-3.2,6.9-1.4,10.4-1.3c3.1,0.1,6.2,0.9,9.3,1.2c0.9,0.1,1.9-0.2,3.4-0.4c-2.1,2.9-2.5,5.1,0.4,6.8c1.9,2.8,2.6,2.9,5,0.6
		c2.5-0.6,5.2-0.6,6.9-3.4c2.5-3.9,6.2-5.1,10.7-4.4c2.7,0.4,5.6,1,8.3,0.6c4.7-0.8,9.5,1.1,14.1-0.7c0.2-0.1,0.4,0,0.6,0.1
		c4.1,0.3,8.2,0.5,12.3,1.1c3.6,0.5,7.4,0.7,10.1,3.7c1.4,1.5,2.4,0.8,3-0.7c0.9-2.3,2.7-3.2,5.1-3.2c1.3,0,2.7-0.3,4-0.5
		c0,9.1,0,18.2,0,27.3c-1.6-0.4-3.2-0.8-4.8-1.2c-0.1-0.2-0.1-0.4-0.1-0.7c-0.8-6.3-5.6-9.6-11.8-8.1c-0.4,0-0.8,0-1.2,0
		c-2.3,0.8-4.6,1.6-6.8,2.4c-0.3,0-0.5-0.1-0.8-0.1c-1.6-0.6-3.2-1.1-4.8-1.7c-0.8-0.2-1.7-0.4-2.5-0.6c-1.4,0.6-2.9,1.2-4.3,1.9
		c-0.2,0-0.4,0-0.6,0c-0.4-0.4-0.8-0.8-1.2-1.2c-2.6,0.8-3.4-0.7-4.1-2.8c-0.2-0.7-1.4-1.4-2.2-1.6c-0.5-0.1-1.7,0.7-1.8,1.2
		c-0.1,0.7,0.4,1.7,0.8,2.4c0.5,0.9,1.2,1.6,1.8,2.4c-0.6,0.9-1.2,1.7-1.7,2.6c-0.6-0.9-1.4-1.8-1.8-2.8c-1.2-2.7-2.7-2.7-4.6-0.7
		c-1.7,0.2-3.3,0.4-5,0.6c-2.2,0.2-4.5,0.4-6.7,0.6c-3.3-4.3-7.1-7.7-13.2-5.6c-2.4-0.3-3.1,0.8-2.5,3c-0.4,0.6-0.8,1.3-1.2,1.9
		c-0.2,0-0.4,0-0.6,0c-3.3-1-5.9-0.3-7.9,2.7c-0.3,0.5-1,0.7-1.4,1c-0.5-1.2-0.9-2.5-1.4-3.7c-0.6,0.6-1.1,1.2-1.7,1.8
		c-0.8-1-1.5-2-2.3-2.9c-1.2,0.5-2.6,1.6-3.6,1.3c-5-1.3-10.2,1.5-15.2-1.5c-2.5-1.5-4,0-4.2,3.2c0,0.6,0,1.2,0,1.8
		c-1.1-0.6-2.1-1.3-3.2-1.9c-0.2-1.4-0.5-2.9-0.7-4.3c-1.4-2.5-2.5-5.4-4.3-7.5c-2.1-2.5-4.9-2.4-7.2,0c-1.5,1.5-2.6,3.4-3.9,5.1
		c-2.6,0.3-3.6,1.3-1.8,3.8c-0.4,1.2-0.8,2.5-1.2,3.7c-2-3-5.1-2.5-8.1-2.5C0,127.1,0,121.5,0,115.9z M145.2,122.6
		c-1.3-1.1-2-1.7-2.6-2.2c-0.8,1.1-1.8,2.1-2.3,3.3c-0.1,0.3,1.3,1.7,1.5,1.7C142.8,124.7,143.7,123.8,145.2,122.6z M107.7,122.9
		c-1.5-0.9-2.4-1.8-3.1-1.7c-0.7,0.1-1.4,1.1-2.1,1.7c0.6,0.7,1.3,1.8,1.9,1.8C105.3,124.8,106.2,123.9,107.7,122.9z M85.1,116.9
		c-0.9,1-1.7,1.5-1.9,2.2c-0.1,0.3,0.9,1.4,1.4,1.4c0.7,0,1.4-0.7,2.1-1.2C86.3,118.7,85.8,118,85.1,116.9z M109.8,121.1
		c0.8-0.9,1.5-1.5,1.6-2.1c0.1-0.3-0.9-1.3-1.2-1.3c-0.6,0.2-1.3,0.8-1.6,1.4C108.5,119.5,109.2,120.2,109.8,121.1z M131.5,121.7
		c0.3,0.2,0.7,0.4,1,0.5c0.8-1.4,1.6-2.8,2.3-4.2c-0.4-0.2-0.7-0.4-1.1-0.6C133,118.9,132.3,120.3,131.5,121.7z M93.1,128.2
		c0,0.5,0.1,1,0.1,1.5c1.1-0.2,2.1-0.4,3.2-0.5c-0.1-0.4-0.1-0.8-0.2-1.2C95.2,128.1,94.2,128.1,93.1,128.2z M55.9,117.8
		c0.2-0.2,0.3-0.4,0.5-0.6c-0.3-0.3-0.7-0.5-1-0.8c-0.2,0.2-0.5,0.6-0.4,0.6C55.2,117.3,55.6,117.6,55.9,117.8z M78.7,122
		c0-0.1,0-0.2,0-0.2c-0.1,0-0.2,0-0.3,0c0,0.1,0,0.3,0.1,0.4C78.6,122.1,78.7,122.1,78.7,122z"/>
	<path class="st3" d="M45.4,117.8c-1.2-0.6-2.3-1.3-3.5-1.8c-1.9-0.8-3.9-1.4-4.1,1.8c-0.1,0.1-0.1,0.2-0.2,0.3
		c-4.5-4.1-34.6,6-37.6,4c0-2,0-8,0-11c2.3-1,16.3-1.6,18.6-2.4c3.9-1.4,20.6,0.1,24.4-1.6c7-3,6.7-3.4,14-2c4.5,0.9,11.5,1,16,2
		c6.4,1.4,5.2,1.9,11.7,2.5c5.3,0.5,26.2,0.2,39.2-1.1c6.4-0.8,12.7-2.5,19.1-3.7c2.3-0.4,4.7-0.4,7.1-0.6c0,3.1,0,6.2,0,9.3
		c-1.3,0.2-2.7,0.5-4,0.5c-2.4,0-4.1,0.9-5.1,3.2c-0.6,1.5-1.7,2.2-3,0.7c-2.7-3-6.5-3.2-10.1-3.7c-4.1-0.6-8.2-0.7-12.3-1.1
		c-0.2,0-0.4-0.1-0.6-0.1c-4.6,1.8-9.4,0-14.1,0.7c-2.6,0.4-5.5-0.2-8.3-0.6c-4.5-0.7-8.3,0.5-10.7,4.4c-1.7,2.7-4.4,2.7-6.9,3.4
		c0-0.6,0-1.2,0-1.9c0.4-0.8,0.7-1.5,1.1-2.3c-0.8,0.1-1.6,0.3-2.4,0.4c-1.3,1-2.5,2.1-3.8,3.1c-2.9-1.7-2.4-3.9-0.4-6.8
		c-1.5,0.2-2.5,0.5-3.4,0.4c-3.1-0.3-6.2-1.1-9.3-1.2c-3.5-0.1-7.3-1.9-10.4,1.3C46.1,115.2,45.8,116.5,45.4,117.8z M47.2,109.6
		c-1-0.9-1.6-1.8-2.3-1.8c-0.6,0-1.8,1-1.8,1.3c0.2,0.8,0.9,1.7,1.6,2C45.2,111.3,46.1,110.3,47.2,109.6z"/>
	<path class="st4" d="M8.1,135.1c-1.6,5.2-2.8,6-8.1,6.2c0-2.9,0-5.8,0-8.7C2.9,132.7,6,132.2,8.1,135.1z"/>
	<path class="st1" d="M84.3,58.2c-0.4-0.4-0.8-0.8-1.2-1.2c3.9,0,7.9,0,11.8,0c-2.4,0.4-4.8,0.9-7.2,1.2
		C86.6,58.4,85.4,58.2,84.3,58.2z"/>
	<path class="st3" d="M142.8,96.1c0.5,1,1.4,2,1.3,2.8c-0.1,0.9-1.4,1.6-2.1,2.4c-0.8-0.8-2.1-1.6-2.1-2.4c0-1,1.1-1.9,1.8-2.9
		C142.1,96.1,142.5,96.1,142.8,96.1z"/>
	<path class="st5" d="M74.3,103.9c-1-1.3-2-2.2-1.8-2.6c0.4-1.2,1.3-2.2,2-3.3c0.7,0.7,1.9,1.5,1.9,2.1
		C76.2,101.2,75.3,102.2,74.3,103.9z"/>
	<path class="st3" d="M110.2,99.8c1,1.3,2.1,2.2,2,2.9c-0.2,0.8-1.4,1.8-2.2,1.8c-0.8,0-1.5-1.2-2.3-1.8
		C108.4,101.8,109.1,101,110.2,99.8z"/>
	<path class="st2" d="M18.7,104.8c-1.1-1.5-2.1-2.3-2.1-3.1c0.1-0.8,1.3-1.5,1.9-2.2c0.7,0.7,1.9,1.3,2,2.1
		C20.7,102.4,19.7,103.2,18.7,104.8z"/>
	<path class="st5" d="M67.2,95.2c-1.3,0.9-2.1,1.8-2.6,1.7c-0.8-0.3-1.6-1.1-1.9-1.9c-0.1-0.4,1-1.8,1.4-1.7
		C64.9,93.5,65.7,94.3,67.2,95.2z"/>
	<path class="st5" d="M83,100.4c-1.1,0.7-1.9,1.6-2.2,1.4c-0.7-0.3-1.4-1.1-1.7-1.8c-0.1-0.2,1-1.4,1.4-1.4
		C81.2,98.8,81.9,99.6,83,100.4z"/>
	<path class="st2" d="M100.1,102.4c-1.1,0.8-1.8,1.6-2.5,1.6c-0.5,0-1.1-0.9-1.6-1.5c0.6-0.6,1.1-1.4,1.8-1.6
		C98.3,100.8,99,101.6,100.1,102.4z"/>
	<path class="st3" d="M54.4,96.3c-0.5,0.3-1.2,1.1-1.5,0.9c-0.6-0.3-1.4-1-1.4-1.6c0-0.5,0.9-1.3,1.4-1.4c0.7-0.1,1.6,0.4,2.3,0.7
		C55,95.4,54.7,95.9,54.4,96.3z"/>
	<path class="st3" d="M110.1,84.5c-0.6-1.1-1.2-1.7-1.2-2.1c0.1-0.5,0.8-1.3,1.3-1.3c0.4,0,1.4,0.8,1.3,1.2
		C111.4,82.8,110.8,83.4,110.1,84.5z"/>
	<path class="st3" d="M31.1,77.2c-0.7,0.6-1.2,1.4-1.6,1.4c-0.5,0-1.3-0.9-1.2-1.3c0.1-0.6,0.8-1.2,1.2-1.7
		C29.9,76.1,30.3,76.5,31.1,77.2z"/>
	<path class="st6" d="M101.7,67.9c-1.1,0.7-1.7,1.2-2.2,1.2c-0.5,0-1-0.5-1.5-0.8c0.4-0.5,0.8-1.2,1.3-1.3
		C99.8,66.8,100.5,67.4,101.7,67.9z"/>
	<path class="st4" d="M53.7,143.2c-0.8-1-1.8-2-2.5-3.1c-1.8-2.9-4.3-4.2-7.7-3.7c-2.1,0.8-4.2,1.6-6.3,2.5c-1.4-2.7-3.7-3-6.3-2.5
		c-0.2,0-0.4,0-0.6,0c0-0.6,0-1.2,0-1.8c0.2-3.2,1.7-4.7,4.2-3.2c5,3,10.3,0.2,15.2,1.5c1,0.3,2.4-0.8,3.6-1.3c0.8,1,1.5,2,2.3,2.9
		c1,0.6,2.1,1.2,3.1,1.8c0.5-0.3,1.1-0.6,1.4-1c1.9-3,4.6-3.6,7.9-2.7c-0.2,1.2-0.5,2.5-0.7,3.7c-1.9,1.2-3.9,2.2-5.5,3.7
		C59.6,142.1,57.2,143.9,53.7,143.2z"/>
	<path class="st7" d="M10.7,134.5c-0.1-0.8-0.1-1.6-0.2-2.4c0.2-1.5,0.4-2.9,0.6-4.4c1.3-1.7,2.4-3.6,3.9-5.1c2.3-2.4,5.1-2.5,7.2,0
		c1.8,2.2,2.9,5,4.3,7.5c-0.6,0.9-1.5,1.7-1.9,2.7c-1.8,4-5.6,5.6-9.6,3.8C13.6,136,12.1,135.2,10.7,134.5z"/>
	<path class="st7" d="M129.7,139.4c-1.1,1.1-2.2,2.1-3.2,3.3c-4,4.3-6.8,4.5-11.3,0.9c-0.6-0.5-1.2-1.1-1.8-1.7
		c0.5-1.8,0.9-3.6,1.4-5.4c3.1-1.5,5.7-4.3,9.6-3.4c0.3,0,0.5,0.1,0.8,0.1C126.7,135.3,128.2,137.3,129.7,139.4z"/>
	<path class="st7" d="M68.8,132.6c0.4-0.6,0.8-1.3,1.2-1.9c0.8-1,1.7-2,2.5-3c6.1-2.1,9.8,1.2,13.2,5.6c0,0.4,0.1,0.9,0.1,1.3
		c0,0.6-0.1,1.2-0.1,1.9c-4.8,2.9-9.7,2.2-14.5-0.1C70.1,135.7,69.6,133.9,68.8,132.6z"/>
	<path class="st1" d="M10.7,134.5c1.5,0.7,2.9,1.5,4.4,2.2c4,1.7,7.8,0.2,9.6-3.8c0.4-1,1.3-1.8,1.9-2.7c0.2,1.4,0.5,2.9,0.7,4.3
		c-0.1,0.6-0.3,1.2-0.4,1.8c-1.2,5.8-4,8-9.3,7.5C12.9,143.3,10.6,140.2,10.7,134.5z"/>
	<path class="st1" d="M68.8,132.6c0.8,1.3,1.2,3.1,2.4,3.6c4.7,2.3,9.6,3,14.5,0.1c0.2,0.4,0.3,0.8,0.5,1.2
		c-2.1,4.9-3.2,5.7-8.6,5.6c-1.5,0-3.1-0.2-4.6-0.5c-4.6-0.9-5.2-1.5-5.4-6.3c0.2-1.2,0.5-2.5,0.7-3.7
		C68.4,132.6,68.6,132.6,68.8,132.6z"/>
	<path class="st7" d="M133.3,130.7c6.1-1.5,11,1.8,11.8,8.1C137.5,138.5,135.1,136.8,133.3,130.7z"/>
	<path class="st8" d="M97.3,132c1.9-2,3.4-2,4.6,0.7c0.5,1,1.2,1.9,1.8,2.8c0,0.3-0.1,0.6-0.1,0.8c-0.7,0.9-1.3,1.8-2.1,2.6
		c-0.5,0.6-1.2,1.2-1.9,1.4c-1.9,0.4-6.5-2.5-7.3-4.6l0,0C96.4,136.4,97,136,97.3,132z"/>
	<path class="st1" d="M133.3,130.7c1.8,6.1,4.3,7.8,11.8,8.1c0,0.2,0.1,0.4,0.1,0.7c-1.7,3-4.9,3.8-8.1,2c-4.2-2.4-5.6-6.1-5-10.7
		C132.5,130.8,132.9,130.7,133.3,130.7z"/>
	<path class="st8" d="M112.2,132.6c0.2,0,0.4,0,0.6,0c0.2,1,0.4,2.1,0.6,3.1c-1.6-0.2-3.3-0.4-4.9-0.6c-0.4-1.6-1.1-2.7-3-2.2
		c-0.6-0.8-1.3-1.6-1.8-2.4c-0.4-0.7-0.9-1.7-0.8-2.4c0.1-0.5,1.3-1.3,1.8-1.2c0.9,0.2,2,0.9,2.2,1.6c0.6,2.2,1.5,3.6,4.1,2.8
		C111.4,131.8,111.8,132.2,112.2,132.6z"/>
	<path class="st3" d="M113.5,135.7c-0.2-1-0.4-2.1-0.6-3.1c1.4-0.6,2.9-1.2,4.3-1.9c0.8,0.2,1.7,0.4,2.5,0.6
		c1.6,0.6,3.2,1.1,4.8,1.7c-3.9-0.9-6.6,1.8-9.6,3.4C114.3,136.2,113.9,136,113.5,135.7z"/>
	<path class="st9" d="M105.5,132.9c1.9-0.6,2.7,0.6,3,2.2c-0.8,1.1-1.7,2.1-2.5,3.2c-0.8-0.7-1.6-1.3-2.4-2c0-0.3,0.1-0.6,0.1-0.8
		C104.3,134.6,104.9,133.8,105.5,132.9z"/>
	<path class="st9" d="M145.2,122.6c-1.5,1.2-2.4,2.1-3.5,2.7c-0.1,0.1-1.6-1.4-1.5-1.7c0.6-1.2,1.5-2.2,2.3-3.3
		C143.3,120.9,143.9,121.5,145.2,122.6z"/>
	<path class="st10" d="M75,119c0,0.6,0,1.2,0,1.9c-2.4,2.3-3.1,2.2-5-0.6c1.3-1,2.5-2.1,3.8-3.1C74.2,117.8,74.6,118.4,75,119z"/>
	<path class="st10" d="M97.3,132c-0.4,4-0.9,4.4-5,3.7c0-1,0-2.1,0-3.1C94,132.4,95.7,132.2,97.3,132z"/>
	<path class="st9" d="M37.6,118c0.1-0.1,0.2-0.2,0.2-0.3c0.8,0.2,1.5,0.4,2.3,0.6c0.4,0.6,0.8,1.1,1.2,1.7c-1.3,3.1-1.5,3.2-4.5,0.9
		c0-0.8,0.1-1.6,0.1-2.4C37.2,118.3,37.4,118.1,37.6,118z"/>
	<path class="st10" d="M107.7,122.9c-1.6,0.9-2.4,1.9-3.3,1.9c-0.6,0-1.3-1.2-1.9-1.8c0.7-0.6,1.3-1.7,2.1-1.7
		C105.4,121.2,106.2,122,107.7,122.9z"/>
	<path class="st9" d="M45.4,117.8c0.4-1.3,0.7-2.5,1.1-3.8c0.8,0.8,1.9,1.4,2.3,2.3c0.2,0.5-0.4,1.9-1.1,2.2
		C47.2,118.8,46.2,118,45.4,117.8z"/>
	<path class="st8" d="M92.3,132.6c0,1,0,2.1,0,3.1c0,0,0,0,0,0c-0.8,0-1.6,0-2.5,0c-1.4-0.4-2.8-0.8-4.1-1.2c0-0.4-0.1-0.9-0.1-1.3
		C87.9,133,90.1,132.8,92.3,132.6z"/>
	<path class="st3" d="M85.1,116.9c0.7,1.1,1.2,1.8,1.7,2.5c-0.7,0.4-1.4,1.1-2.1,1.2c-0.5,0-1.5-1.1-1.4-1.4
		C83.4,118.4,84.2,117.9,85.1,116.9z"/>
	<path class="st10" d="M58.9,136.3c-1-0.6-2.1-1.2-3.1-1.8c0.6-0.6,1.1-1.2,1.7-1.8C57.9,133.9,58.4,135.1,58.9,136.3z"/>
	<path class="st3" d="M109.8,121.1c-0.6-0.9-1.3-1.6-1.2-1.9c0.3-0.6,0.9-1.2,1.6-1.4c0.3-0.1,1.3,0.9,1.2,1.3
		C111.3,119.6,110.6,120.2,109.8,121.1z"/>
	<path class="st3" d="M131.5,121.7c0.7-1.4,1.5-2.9,2.2-4.3c0.4,0.2,0.7,0.4,1.1,0.6c-0.8,1.4-1.6,2.8-2.3,4.2
		C132.2,122.1,131.9,121.9,131.5,121.7z"/>
	<path class="st3" d="M37,118.5c0,0.8-0.1,1.6-0.1,2.4c-3.2,0-3.2,0-3.4-3C34.7,118.1,35.8,118.3,37,118.5z"/>
	<path class="st8" d="M93.1,128.2c1.1-0.1,2.1-0.2,3.2-0.2c0.1,0.4,0.1,0.8,0.2,1.2c-1.1,0.2-2.1,0.4-3.2,0.5
		C93.2,129.2,93.1,128.7,93.1,128.2z"/>
	<path class="st4" d="M11.1,127.7c-0.2,1.5-0.4,2.9-0.6,4.4c-0.4-0.2-0.8-0.4-1.2-0.6C7.5,129,8.5,128,11.1,127.7z"/>
	<path class="st4" d="M72.5,127.7c-0.8,1-1.7,2-2.5,3C69.4,128.5,70.1,127.3,72.5,127.7z"/>
	<path class="st3" d="M55.9,117.8c-0.3-0.3-0.7-0.5-1-0.8c0,0,0.3-0.4,0.4-0.6c0.3,0.3,0.7,0.5,1,0.8
		C56.2,117.4,56.1,117.6,55.9,117.8z"/>
	<path class="st8" d="M119.7,131.4c-0.8-0.2-1.7-0.4-2.5-0.6C118,131,118.8,131.2,119.7,131.4z"/>
	<path class="st3" d="M78.7,122c-0.1,0-0.2,0.1-0.2,0.1c0-0.1,0-0.3-0.1-0.4c0.1,0,0.2,0,0.3,0C78.7,121.8,78.7,121.9,78.7,122z"/>
	<path class="st3" d="M41.3,119.9c-0.4-0.5-0.8-1.1-1.2-1.7C40.5,118.8,40.9,119.4,41.3,119.9z"/>
	<path class="st3" d="M112.2,132.6c-0.4-0.4-0.8-0.8-1.2-1.2C111.4,131.8,111.8,132.2,112.2,132.6z"/>
	<path class="st10" d="M47.2,109.6c-1.1,0.7-2,1.7-2.5,1.5c-0.7-0.3-1.4-1.2-1.6-2c-0.1-0.3,1.2-1.4,1.8-1.3
		C45.6,107.8,46.2,108.7,47.2,109.6z"/>
	<path class="st2" d="M75,119c-0.4-0.6-0.8-1.2-1.2-1.9c0.8-0.1,1.6-0.3,2.4-0.4C75.8,117.5,75.4,118.2,75,119z"/>
	<path class="st7" d="M31,136.4c2.6-0.5,5-0.2,6.3,2.5c-0.2,1-0.5,2.1-0.7,3.1c-2.1,0-4.2,0-6.3-0.1C30.6,140.1,30.8,138.2,31,136.4
		z"/>
	<path class="st1" d="M30.4,141.9c2.1,0,4.2,0,6.3,0.1C34.7,145.3,32.2,145.2,30.4,141.9z"/>
	<path class="st5" d="M43.7,63.2c0.4-0.6,0.6-1.5,1.1-1.7c0.6-0.3,1.7-0.3,2.1,0.1c0.4,0.4,0.4,1.7,0.1,2c-0.7,0.7-1.7,0.9-2.6,1.4
		C44.2,64.4,44,63.8,43.7,63.2z"/>
	<path class="st11" d="M43.7,63.2c0.2,0.6,0.4,1.2,0.6,1.8c-0.7-0.6-1.5-1.2-2.2-1.8c0,0,0,0,0,0C42.7,63.2,43.2,63.2,43.7,63.2z"/>
	<path class="st11" d="M42.2,63.2C41.9,63.1,41.6,62.9,42.2,63.2C41.9,62.7,42,62.9,42.2,63.2C42.2,63.2,42.2,63.2,42.2,63.2z"/>
	<polygon class="st11" points="47.2,67.1 47.3,67.2 47.1,67.2 	"/>
	<path class="st6" d="M89.9,135.7c0.8,0,1.6,0,2.5,0c0.8,2,5.3,5,7.3,4.6c0.7-0.2,1.3-0.8,1.9-1.4c0.8-0.8,1.4-1.7,2.1-2.6
		c0.8,0.7,1.6,1.3,2.4,2c0.8-1.1,1.7-2.1,2.5-3.2c1.6,0.2,3.3,0.4,4.9,0.6c0.4,0.2,0.9,0.5,1.3,0.7c-0.5,1.8-0.9,3.6-1.4,5.4
		c-0.2,0-0.4,0-0.7,0c-1.4,0.8-2.9,1.5-4.3,2.4c-4,2.7-8,3.7-12.4,0.8c-0.5-0.3-1.2-0.4-1.7-0.7c-0.7-0.8-1.3-1.6-2-2.3
		c-0.4-0.5-0.8-0.9-1.2-1.4c-0.8-1-1.7-2.1-2.5-3.1C89.1,137,89.5,136.4,89.9,135.7z"/>
	<path class="st7" d="M92.3,142.1c0.7,0.8,1.3,1.6,2,2.3c-0.7,1.4-1.3,2.8-2,4.3c-1.7-1.9-3.4-3.8-5.1-5.6c1.3-0.4,2.5-0.8,3.8-1.2
		C91.5,142,91.9,142,92.3,142.1z"/>
	<path class="st2" d="M89.9,135.7c-0.4,0.6-0.8,1.2-1.2,1.9c-0.8,0-1.7,0-2.5,0c-0.2-0.4-0.3-0.8-0.5-1.2c0-0.6,0.1-1.2,0.1-1.9
		C87.1,134.9,88.5,135.3,89.9,135.7z"/>
	<path class="st8" d="M92.3,142.1c-0.4-0.1-0.8-0.1-1.2-0.2c0-0.4,0-0.8,0-1.2C91.5,141.2,91.9,141.6,92.3,142.1z"/>
</g>
<g>
	<path class="st2" d="M150,42c-1,0-1-1-3.7,0.1c-0.2,0.1-0.6,0.1-0.8,0.1c-6-2.1-12.2,0.1-18.3-0.9c-3.4-0.5-7.2,0.2-10.7,0.7
		c-5.9,0.8-10.8-0.6-13.9-5c-2.2-3.1-5.7-3.1-9-3.8c-3.1-2.6-4-2.5-6.5,0.7c-3.7,2-3.2,4.5-0.5,7.8c-2-0.2-3.2-0.6-4.4-0.5
		c-4.1,0.4-8.1,1.3-12.1,1.4c-4.5,0.1-9.5,2.2-13.6-1.5c1-0.9,2.4-1.6,3-2.7c0.3-0.6-0.6-2.1-1.4-2.5c-0.6-0.3-2,0.5-3,0.9
		c-1.5,0.7-3,1.5-4.5,2.1c-2.5,1-4.2,1.8-4.5-1.8c1-0.2,1.2-0.6,2.2-0.8c0.5-0.6,1-1.3,1.5-1.9c-1.7-3.6-2-3.6-5.8-1.1
		c-4.2,0-4.2,0-4.4,3.4c1.6-0.3,3.1-0.5,4.6-0.7c0.3,0.2,0.5,0.4,0.8,0.6C39,41.1,41.3,43.3,34,43c-4.7-0.2-11.2,1-15,4
		c-5.1-1.7-13.9,1.7-19,0c0-6.4,0-21.6,0-28c3.8,0,3.8,1.3,6.5-2.1c0.5,1.4,1.1,2.8,1.6,4.2C9,22,9,23,10.5,25.5
		c1.7,1.9,3.1,4.1,5,5.8c3,2.7,6.6,2.9,9.4,0c2.4-2.5,3.8-5.7,5.6-8.6c0.3-1.6,0.6-3.3,0.9-4.9c1.4-0.7,2.7-1.4,4.1-2.2
		c0,0.7,0,1.4,0,2.1c0.3,3.6,2.2,5.4,5.5,3.6c6.5-3.4,13.3-0.2,19.8-1.8c1.3-0.3,3.1,1,4.7,1.5c1-1.1,2-2.2,3-3.4
		c0.7,0.7,1.5,1.4,2.2,2.1c0.6-1.4,1.2-2.8,1.8-4.2c0.6,0.4,1.5,0.7,1.9,1.2c2.5,3.4,6,4.1,10.2,3c0.3,0,0.5,0,0.8,0
		c0.5,0.7,1,1.5,1.5,2.2c-0.8,2.5,0.1,3.8,3.3,3.5c7.9,2.4,12.8-1.4,17.1-6.3c2.9,0.2,5.8,0.4,8.7,0.7c2.2,0.2,4.3,0.5,6.5,0.7
		c2.4,2.3,4.4,2.3,6-0.8c0.6-1.1,1.6-2.1,2.4-3.2c0.8,1,1.5,2,2.3,2.9c-0.8,0.9-1.7,1.8-2.3,2.8c-0.5,0.8-1.2,1.9-1,2.7
		c0.1,0.6,1.7,1.5,2.3,1.4c1.1-0.2,2.6-1,2.9-1.9c0.8-2.5,1.9-4.2,5.3-3.2c0.5-0.5,1.1-0.9,1.6-1.4c0.3,0,0.5,0,0.8,0
		c1.9,0.7,3.8,1.4,5.6,2.1c1.1-0.2,0.6,0.3,1.7,0.1 M131.8,28.7c-0.8,0-1.7,1.3-2.5,2.1c0.9,0.7,1.7,1.9,2.7,2
		c1,0.1,2.1-0.9,4.1-1.9C134,29.8,132.9,28.7,131.8,28.7z M108.7,34.9c-0.9-0.5-1.8-1.3-2.7-1.3c-0.7,0-2,1.2-1.9,1.6
		c0.3,0.8,1.3,1.4,2.5,2.5C107.5,36.5,108.1,35.7,108.7,34.9z M137.2,35.1c0.4,0.7,1.2,1.4,2.1,1.6c0.3,0.1,1.7-1,1.6-1.4
		c-0.2-0.7-1.1-1.3-2.1-2.4C137.9,34,137,34.8,137.2,35.1z M121.1,25.1c0.1-0.4,0.1-0.9,0.2-1.3c-1.4-0.2-2.8-0.4-4.2-0.6
		c-0.1,0.6-0.1,1.1-0.2,1.7C118.4,24.9,119.8,25,121.1,25.1z M67.4,37.6c0,0,0.4,0.5,0.6,0.7c0.5-0.3,0.9-0.6,1.4-0.9
		c-0.2-0.2-0.4-0.5-0.6-0.7C68.3,37,67.8,37.3,67.4,37.6z M98,31.7c0,0.2-0.1,0.3-0.1,0.5c0.1,0,0.3,0,0.3,0c0.1-0.1,0-0.2,0.1-0.3
		C98.2,31.8,98.1,31.8,98,31.7z"/>
	<path class="st3" d="M150,46v3c-16.9-1.9-26,1-43,2c-8.5,0.5-61.6-3.6-70-2 M37,49c-5.3-0.6-11.7-0.2-16.8-1.8c-3-1-6-2.3-8.9-3.4
		c3.8-3,8.6-3,13.3-2.8c7.3,0.3,14.4,0.1,20.3-4.5c0.1,0.1,0.2,0.2,0.3,0.3c0.4,3.6,2.9,3,5.4,2c1.5-0.6,3-1.4,4.5-2.1
		c0.5,1.4,0.9,2.9,1.4,4.3c4.1,3.7,9,1.6,13.6,1.5c4.1-0.1,8.1-1,12.1-1.4c1.2-0.1,2.4,0.3,4.4,0.5c-2.7-3.3-3.3-5.8,0.5-7.8
		c1.6,1.2,3.3,2.4,4.9,3.6c1,0.2,2,0.3,3.1,0.5c-0.5-0.9-1-1.7-1.4-2.6c0-0.7,0-1.4,0-2.1c3.3,0.7,6.8,0.7,9,3.8
		c3.2,4.4,8.1,5.8,13.9,5c3.5-0.5,7.3-1.2,10.7-0.7c6.1,0.9,16.8-1.4,22.8,0.6c0.2,0.1-0.3,4,0,4 M54.1,44.3c-0.9,0.3-1.8,1.4-2,2.3
		c-0.1,0.4,1.5,1.6,2.3,1.5c0.8,0,1.6-1.1,2.9-2.1C55.9,45.2,54.7,44.1,54.1,44.3z"/>
	<path class="st1" d="M105.6,104.6c-0.5,0.5-1.1,0.9-1.6,1.4c5.1,0,10.2,0,15.3,0"/>
	<path class="st5" d="M92.6,52.5c-1.3,1.5-2.6,2.5-2.4,2.9c0.6,1.4,1.7,2.5,2.6,3.7c0.9-0.8,2.5-1.7,2.4-2.4
		C95.1,55.6,93.8,54.5,92.6,52.5z"/>
	<path class="st3" d="M139.3,57.3c1.2-1.5,2.7-2.5,2.6-3.2c-0.2-0.9-1.9-2-2.9-2c-1,0-2,1.3-2.9,2.1C136.9,55,137.8,55.8,139.3,57.3
		z"/>
	<path class="st2" d="M20.4,51.6c-1.4,1.7-2.8,2.6-2.7,3.5c0.1,0.9,1.6,1.7,2.5,2.5c0.9-0.8,2.4-1.5,2.6-2.4
		C22.9,54.3,21.6,53.3,20.4,51.6z"/>
	<path class="st5" d="M83.3,62.4c-1.7-1-2.8-2.1-3.4-1.9c-1,0.3-2.1,1.2-2.5,2.1c-0.2,0.4,1.3,2.1,1.8,2
		C80.4,64.4,81.4,63.5,83.3,62.4z"/>
	<path class="st5" d="M103.9,56.5c-1.4-0.8-2.4-1.8-2.9-1.6c-0.9,0.3-1.8,1.2-2.2,2c-0.1,0.3,1.3,1.6,1.9,1.5
		C101.6,58.3,102.4,57.4,103.9,56.5z"/>
	<path class="st2" d="M126.2,54.3c-1.5-0.9-2.3-1.8-3.2-1.9c-0.7,0-1.4,1.1-2.1,1.7c0.8,0.6,1.4,1.6,2.3,1.8
		C123.8,56.1,124.7,55.1,126.2,54.3z"/>
	<path class="st3" d="M66.8,61.2c-0.7-0.4-1.5-1.2-1.9-1.1c-0.8,0.3-1.8,1.1-1.8,1.8c0,0.5,1.1,1.5,1.8,1.6c1,0.1,2-0.5,3-0.8
		C67.5,62.2,67.1,61.7,66.8,61.2z"/>
	<path class="st3" d="M139.1,74.7c-0.8,1.2-1.6,1.9-1.5,2.4c0.1,0.6,1,1.4,1.7,1.5c0.6,0,1.8-0.9,1.7-1.3
		C140.8,76.6,140,75.9,139.1,74.7z"/>
	<path class="st3" d="M36.4,83c-0.9-0.7-1.5-1.7-2.1-1.6c-0.6,0-1.7,1-1.6,1.5c0.1,0.7,1,1.3,1.5,2C34.8,84.3,35.4,83.7,36.4,83z"/>
	<path class="st6" d="M128.1,93.6c-1.5-0.8-2.1-1.4-2.9-1.4c-0.6,0-1.3,0.6-1.9,1c0.6,0.5,1.1,1.4,1.7,1.5
		C125.7,94.8,126.6,94.2,128.1,93.6z"/>
	<path class="st7" d="M9.9,17.7c-0.1,0.9-0.2,1.9-0.2,2.8c0.3,1.7,0.5,3.3,0.8,5c1.7,1.9,3.1,4.1,5,5.8c3,2.7,6.6,2.9,9.4,0
		c2.4-2.5,3.8-5.7,5.6-8.6c-0.8-1-1.9-1.9-2.5-3.1c-2.3-4.5-7.2-6.3-12.4-4.3C13.6,16,11.8,16.9,9.9,17.7z"/>
	<path class="st7" d="M85.4,19.8c0.5,0.7,1,1.5,1.5,2.2c1.1,1.2,2.2,2.3,3.3,3.5c7.9,2.4,12.8-1.4,17.1-6.3c0-0.5,0.1-1,0.1-1.5
		c0-0.7-0.1-1.4-0.1-2.1c-6.3-3.3-12.7-2.5-18.8,0.1C87.1,16.3,86.4,18.4,85.4,19.8z"/>
	<path class="st1" d="M9.9,17.7c1.9-0.8,3.8-1.7,5.7-2.5c5.2-2,10.1-0.2,12.4,4.3c0.6,1.1,1.6,2,2.5,3.1c0.3-1.6,0.6-3.3,0.9-4.9
		c-0.2-0.7-0.4-1.4-0.6-2c-1.6-6.6-5.1-9.1-12.1-8.5C12.8,7.6,9.8,11.2,9.9,17.7z"/>
	<path class="st1" d="M85.4,19.8c1-1.4,1.6-3.5,3.1-4.2c6.1-2.7,12.5-3.4,18.8-0.1c0.2-0.4,0.4-0.9,0.6-1.3
		c-2.7-5.6-4.2-6.5-11.2-6.4c-2,0-4,0.2-6,0.5c-6,1-6.7,1.8-7,7.2c0.3,1.4,0.6,2.8,0.9,4.3C84.9,19.8,85.2,19.8,85.4,19.8z"/>
	<path class="st8" d="M141.8,19.8c0.3,0,0.5,0,0.8,0c0.3-1.2,0.5-2.4,0.8-3.5c-2.1,0.2-4.3,0.5-6.4,0.7c-0.5,1.8-1.4,3.1-3.9,2.5
		c-0.8,0.9-1.7,1.8-2.3,2.8c-0.5,0.8-1.2,1.9-1,2.7c0.1,0.6,1.7,1.5,2.3,1.4c1.1-0.2,2.6-1,2.9-1.9c0.8-2.5,1.9-4.2,5.3-3.2
		C140.8,20.7,141.3,20.3,141.8,19.8z"/>
	<path class="st9" d="M133.1,19.5c2.5,0.6,3.4-0.6,3.9-2.5c-1.1-1.2-2.2-2.4-3.3-3.6c-1,0.7-2,1.5-3.1,2.2c0.1,0.3,0.1,0.6,0.2,1
		C131.6,17.5,132.4,18.5,133.1,19.5z"/>
	<path class="st10" d="M93.5,35.3c0-0.7,0-1.4,0-2.1c-3.1-2.6-4-2.5-6.5,0.7c1.6,1.2,3.3,2.4,4.9,3.6C92.4,36.8,93,36,93.5,35.3z"/>
	<path class="st10" d="M122.5,20.5c-0.5-4.6-1.2-5-6.5-4.2c0,1.2,0,2.4,0,3.5C118.2,20,120.4,20.3,122.5,20.5z"/>
	<path class="st9" d="M44.8,36.5c0.1,0.1,0.2,0.2,0.3,0.3c1-0.2,2-0.4,3-0.6c0.5-0.6,1-1.3,1.5-1.9c-1.7-3.6-2-3.6-5.8-1.1
		c0.1,0.9,0.1,1.8,0.2,2.7C44.3,36.1,44.6,36.3,44.8,36.5z"/>
	<path class="st10" d="M136,30.9c-2-1.1-3.1-2.1-4.2-2.1c-0.8,0-1.7,1.3-2.5,2.1c0.9,0.7,1.7,1.9,2.7,2
		C132.9,32.9,134,31.9,136,30.9z"/>
	<path class="st9" d="M55,36.7c0.5,1.4,0.9,2.9,1.4,4.3c1-0.9,2.4-1.6,3-2.7c0.3-0.6-0.6-2.1-1.4-2.5C57.4,35.6,56,36.4,55,36.7z"/>
	<path class="st8" d="M116,19.8c0-1.2,0-2.4,0-3.5c0,0,0,0,0,0c-1.1,0-2.1,0-3.2,0c-1.8,0.5-3.6,0.9-5.4,1.4c0,0.5-0.1,1-0.1,1.5
		C110.2,19.3,113.1,19.6,116,19.8z"/>
	<path class="st3" d="M106.6,37.7c1-1.3,1.6-2,2.2-2.8c-0.9-0.5-1.8-1.3-2.7-1.3c-0.7,0-2,1.2-1.9,1.6
		C104.4,36,105.4,36.6,106.6,37.7z"/>
	<path class="st10" d="M72.5,15.6c-1.3,0.7-2.7,1.4-4,2.1c0.7,0.7,1.5,1.4,2.2,2.1C71.3,18.4,71.9,17,72.5,15.6z"/>
	<path class="st3" d="M138.7,32.9c-0.8,1.1-1.7,1.9-1.6,2.2c0.4,0.7,1.2,1.4,2.1,1.6c0.3,0.1,1.7-1,1.6-1.4
		C140.6,34.6,139.7,34,138.7,32.9z"/>
	<path class="st3" d="M44.1,35.9c-0.1-0.9-0.1-1.8-0.2-2.7c-4.2,0-4.2,0-4.4,3.4C41.1,36.4,42.6,36.2,44.1,35.9z"/>
	<path class="st8" d="M117,24.8c1.4,0.1,2.7,0.2,4.1,0.3c0.1-0.4,0.1-0.9,0.2-1.3c-1.4-0.2-2.8-0.4-4.2-0.6
		C117.1,23.7,117.1,24.3,117,24.8z"/>
	<path class="st3" d="M68.7,36.7c-0.4,0.3-0.9,0.6-1.3,1c0,0,0.4,0.5,0.6,0.7c0.5-0.3,0.9-0.6,1.4-0.9
		C69.1,37.1,68.9,36.9,68.7,36.7z"/>
	<path class="st3" d="M98.3,31.9c-0.1,0-0.2-0.1-0.3-0.1c0,0.2-0.1,0.3-0.1,0.5c0.1,0,0.3,0,0.3,0C98.3,32.1,98.3,32,98.3,31.9z"/>
	<path class="st3" d="M49.7,34.3c-0.5,0.6-1,1.3-1.5,1.9C48.7,35.5,49.2,34.9,49.7,34.3z"/>
	<path class="st3" d="M141.8,19.8c-0.5,0.5-1.1,0.9-1.6,1.4C140.8,20.7,141.3,20.3,141.8,19.8z"/>
	<path class="st10" d="M57.3,46.1c-1.5-0.8-2.6-1.9-3.2-1.7c-0.9,0.3-1.8,1.4-2,2.3c-0.1,0.4,1.5,1.6,2.3,1.5
		C55.2,48.1,56,47.1,57.3,46.1z"/>
	<path class="st2" d="M93.5,35.3c-0.5,0.7-1.1,1.4-1.6,2.1c1,0.2,2,0.3,3.1,0.5C94.5,37.1,94,36.2,93.5,35.3z"/>
	<path class="st5" d="M52.8,98.9c0.5,0.7,0.7,1.7,1.4,2c0.7,0.3,2.2,0.3,2.7-0.1c0.5-0.4,0.6-1.9,0.1-2.3c-0.8-0.8-2.2-1.1-3.4-1.5
		C53.4,97.5,53.1,98.2,52.8,98.9z"/>
	<path class="st11" d="M52.8,98.9c0.3-0.7,0.6-1.4,0.8-2c-1,0.7-1.9,1.4-2.9,2.1c0,0,0,0,0,0C51.5,98.9,52.2,98.9,52.8,98.9z"/>
	<path class="st11" d="M50.8,98.9C50.5,99.1,50.1,99.3,50.8,98.9C50.5,99.5,50.6,99.2,50.8,98.9C50.8,98.9,50.8,98.9,50.8,98.9z"/>
	<polygon class="st11" points="57.3,94.5 57.5,94.4 57.3,94.3 	"/>
	<path class="st6" d="M112.8,16.3c1.1,0,2.1,0,3.2,0c1-2.3,6.9-5.7,9.4-5.2c0.9,0.2,1.7,0.9,2.4,1.6c1,0.9,1.8,2,2.8,2.9
		c1-0.7,2-1.5,3.1-2.2c1.1,1.2,2.2,2.4,3.3,3.6c2.1-0.2,4.3-0.5,6.4-0.7c0.6-0.3,1.2-0.6,1.7-0.8c-0.6-2.1-1.2-4.1-1.8-6.2
		c-0.3,0-0.6,0-0.9,0c-1.9-0.9-3.8-1.7-5.6-2.7c-5.2-3.1-10.4-4.2-16.1-0.9c-0.6,0.4-1.5,0.5-2.3,0.7c-0.9,0.9-1.7,1.8-2.6,2.7
		c-0.5,0.5-1,1.1-1.6,1.6c-1.1,1.2-2.2,2.4-3.2,3.5C111.8,14.8,112.3,15.5,112.8,16.3z"/>
	<path class="st2" d="M112.8,16.3c-0.5-0.7-1.1-1.4-1.6-2.1c-1.1,0-2.2,0-3.3,0c-0.2,0.5-0.4,0.9-0.6,1.3c0,0.7,0.1,1.4,0.1,2.1
		C109.3,17.2,111,16.7,112.8,16.3z"/>
	<path class="st8" d="M116,9c-0.5,0.1-1.1,0.1-1.6,0.2c0,0.5,0,0.9,0,1.4C115,10.1,115.5,9.5,116,9z"/>
</g>
<rect class="st12" width="150" height="150"/>
</svg>
