<svg id="Calque_1" data-name="Calque 1" xmlns="http://www.w3.org/2000/svg" viewBox="0 0 139.66 141.4"><defs><style>.cls-1{fill:#629544;}.cls-2{fill:#5d6d35;}.cls-3{fill:#7ba844;}.cls-4{fill:#7aa943;}.cls-5{fill:#639544;}</style></defs><title>Haricot</title><path class="cls-1" d="M8.2,107.7c.7-1.7,1.4-3.3,2.1-5,1,.2,2.3,1,2.8.6,3-2.1,6.2-4,8.5-6.7,8.9-10.5,17.5-21.3,26.1-32C56.9,53,66.2,41.4,75.4,29.7c3.5-4.4,6.7-9,10.2-13.3.9-1.1,2.5-1.6,3.8-2.3a2.65,2.65,0,0,0,.6.5c-.4,1.2-.5,2.6-1.2,3.5Q55.35,61.45,21.5,104.6c-3.3,4.3-7.6,6.7-13.1,6.2C8.3,109.7,8.2,108.7,8.2,107.7Z" transform="translate(-6 -5)"/><path class="cls-2" d="M90.1,14.6a2.65,2.65,0,0,0-.6-.5c-1.2-.8-2.3-1.7-3.5-2.5,2.3-2.1,4.7-4.2,7-6.3L97.2,5c.8.9,1.6,1.9,2.4,2.8-1.1.5-2.3.9-3.4,1.5a26.45,26.45,0,0,0-3.9,2.6A14.42,14.42,0,0,0,90.1,14.6Z" transform="translate(-6 -5)"/><path class="cls-2" d="M112.7,30.6c3.7-4.8,4.2-9.8,1.3-14.7-1,.2-1.9.5-2.9.7,1.4,4.2.3,7.9-2.5,11.1.6.3,1.2.7,1.7,1C111.1,29.3,111.9,29.9,112.7,30.6Z" transform="translate(-6 -5)"/><path class="cls-3" d="M112.7,30.6c-.8-.6-1.6-1.3-2.4-1.9-1.1,1.8-2.2,3.5-3.4,5.3-6.2,9.6-12.4,19.1-18.5,28.7-6.7,10.6-13.4,21.4-20,32-3,4.8-6.2,9.6-9.1,14.5-3.3,5.7-6.5,11.5-9.4,17.4-1,1.9-1.2,4.3,1.6,5.4,5.7-3.8,9.6-9.2,13.3-14.8a657.59,657.59,0,0,0,35.6-61.4c3.6-7,7.4-13.8,11-20.8C112.2,33.7,112.3,32.1,112.7,30.6Z" transform="translate(-6 -5)"/><path class="cls-1" d="M51.6,132c-2.9-1.1-2.6-3.5-1.6-5.4,3-5.9,6.1-11.7,9.4-17.4,2.9-4.9,6-9.7,9.1-14.5,6.7-10.7,13.3-21.4,20-32C94.6,53.1,100.8,43.6,107,34c1.1-1.7,2.2-3.5,3.4-5.3-.6-.3-1.2-.7-1.7-1-1.2,1-2.7,1.7-3.5,2.9Q76.7,74.55,48.3,118.5c-2.5,3.8-5.3,7.5-5.1,12.3a34.88,34.88,0,0,0,1.2,5.4c1.6-.7,3.2-1.3,4.7-2.1A16.38,16.38,0,0,0,51.6,132Z" transform="translate(-6 -5)"/><path class="cls-3" d="M86,11.6c1.2.8,2.3,1.7,3.5,2.5-1.3.8-2.9,1.2-3.8,2.3-3.5,4.3-6.8,8.9-10.2,13.3Q61.55,47.25,47.6,64.6C39,75.3,30.4,86.1,21.5,96.6c-2.3,2.7-5.5,4.6-8.5,6.7-.5.4-1.9-.4-2.8-.6,3.1-5.8,5.6-12.1,9.5-17.3A568,568,0,0,1,66,31.4c5.4-5.7,10.7-11.6,16.2-17.3A16.67,16.67,0,0,1,86,11.6Z" transform="translate(-6 -5)"/><path class="cls-4" d="M8.5,136.3A42,42,0,0,1,15.7,117c8.9-13.4,20.5-24.2,32.6-34.5,19.2-16.4,39.8-30.9,60.9-44.6,3.2-2,6.6-3.6,9.9-5.4a16.35,16.35,0,0,1,10.6-1.9c.9,1.3,1.9,2.7,2.8,4a11.46,11.46,0,0,1-2.2,2.2c-6.4,4-12.8,7.9-19.2,11.8-4.7,2.9-9.4,5.8-14.1,8.9-9.3,6.2-18.8,12.1-27.8,18.7-11.1,8.2-19.1,19.4-27.4,30.2-5.4,7-10.4,14.4-15.6,21.6C21.9,134.3,16.6,138.6,8.5,136.3Z" transform="translate(-6 -5)"/><path class="cls-5" d="M8.5,136.3c8.1,2.2,13.4-2,17.8-8.1,5.2-7.2,10.2-14.6,15.6-21.6,8.4-10.8,16.3-22.1,27.4-30.2,9-6.6,18.5-12.6,27.8-18.7,4.6-3.1,9.4-6,14.1-8.9,6.4-4,12.9-7.8,19.2-11.8a9.19,9.19,0,0,0,2.2-2.2c.6.7,1.2,1.4,1.7,2.1-8,5.4-16.1,10.7-23.9,16.3-13.8,10-27.8,19.7-41,30.4-18.2,14.9-32.5,33.4-44,54.1-2.4,4.3-5.6,6.3-10.5,6.4-3.2.1-6.3,1.6-8.9,2.3C6.7,143.4,7.6,139.9,8.5,136.3Z" transform="translate(-6 -5)"/><path class="cls-2" d="M134.4,36.8c-.6-.7-1.2-1.4-1.7-2.1-.9-1.3-1.9-2.7-2.8-4,1.6-1.6,3-3.3,5.8-2.7,2,.4,4.5-3.1,4.9-6.5.2-1.5-.4-3-.2-4.5.2-1.2.6-2.9,1.5-3.3,1.7-.8,2.8.6,3.2,2.2,1.3,5.3.4,10.1-3.3,14.1C139.4,32.5,136.8,34.6,134.4,36.8Z" transform="translate(-6 -5)"/></svg>