<svg id="Calque_1" data-name="Calque 1" xmlns="http://www.w3.org/2000/svg" viewBox="0 0 132.18 142.23"><defs><style>.cls-1{fill:#8bc24a;}.cls-2{fill:#568b2f;}.cls-3{fill:#689e38;}.cls-4{fill:#679e38;}</style></defs><title>Laitue</title><path class="cls-1" d="M63.3,143.3c-1.1-1.7-1-3.9-3.1-5.5-.6-.4-1.6-1-1.5-1.5s.9-.7,1.5-.8c2.1-11.8,7.6-22,15.2-31.1,4.8-5.7,5.3-11.8,2.8-18.7-2.1-6-.5-11.3,3.9-15.8,4.8-4.9,5-5.9,2-12-3.6-7.3-2.8-12.6,4.2-16.8C96.8,36,99.5,28.3,101,19.4c9.2-9.6,21-2.4,22.1,7.9.8,8,4.1,14.7,11.9,18.5,5.5,2.7,8.6,15.4,1.3,19.9-7.8,4.9-7.8,11.5-6.8,19,1.1,8.5-1,12.3-8.9,15.6a27.18,27.18,0,0,1-2.5,1.1c-6.6,2.1-9.7,6.6-9.4,13.5a33.06,33.06,0,0,1-.6,5.4c-.4,5.8-3.5,9.2-8.8,11.3-2.2.9-2.2,1.1-9,4.7-3.9,2-5.4,2.8-6.8,4.4a25.49,25.49,0,0,1-2.4,2.4,26.67,26.67,0,0,1-3.1,2.4C74.5,147.9,65.9,147.5,63.3,143.3Z" transform="translate(-8.41 -4.74)"/><path class="cls-1" d="M110.7,66.3" transform="translate(-8.41 -4.74)"/><path class="cls-1" d="M61.8,120.6c-.6,2.2-1.1,4.2-1.5,6.3,1.5,3.7,1.6,7.1,0,8.6a4.11,4.11,0,0,1-1.5.8c-2.4.5-4.4-2.2-4.5-2.4a26.87,26.87,0,0,1-4.6-2.2,30.29,30.29,0,0,1-6.4-4.8,31.16,31.16,0,0,1-2.1-6.2c-1-5-.2-6.6-1.4-10.4a12.32,12.32,0,0,0-4.4-6.3c-2.4-1.8-5.6-2.7-8.5-3.9-5-1.9-7.6-5.4-7.5-10.7,0-5.5.9-7.5.4-12.9a41.38,41.38,0,0,0-.8-4.6,10.25,10.25,0,0,0-2.6-2.8,5.92,5.92,0,0,0-.6-.4l-1.6-1.3c-8.6-6.9-7.5-17.9,2.5-22.7a12,12,0,0,0,4.7-3.8,13.23,13.23,0,0,0,1.8-3.6c1.4-4.3,2.5-8.6,3.2-11.7,4.4-3.4,13.2-9.1,21.1-6.3.4.1.7.3,1.1.4C50,28.4,52.6,36,61,41.1c7.4,4.5,8.1,9.6,4.2,17.4-1.3,2.8-2,4.4-1.7,5.9.3,2,1.6,2.7,3.7,5.4a40,40,0,0,1,4.1,6.4c.3,3.7.3,6.9.3,9.3,0,6.8-.6,10.1-1.1,12.2-.1.5-.2,1.1-.4,1.8a35.19,35.19,0,0,1-4.2,9.4A79.8,79.8,0,0,0,61.8,120.6Z" transform="translate(-8.41 -4.74)"/><path class="cls-2" d="M60.3,135.4V124.6c1-4.7,2.1-9.5,3.1-14.2,2.2-3.7,4.4-7.3,6.6-11a3.66,3.66,0,0,0,.4-1.8c.3-4.1.2-8.2,1.1-12.2,1.3-6.2,0-11.3-4.4-15.7-4.5-4.6-4.7-5.7-2-11.3C69,50.5,68.3,45.5,60.9,41,52.6,35.9,50,28.3,48.5,19.6a11.71,11.71,0,0,1,8.8-4.3,12.31,12.31,0,0,0,10-5.8,19.86,19.86,0,0,1,3.1-3.4,7.47,7.47,0,0,1,.3,2c-1.1,5.9-5,9.9-9.2,13.7-3.8,3.3-4.1,7.1-.2,9.9,6.1,4.3,11.6,9,14,17.7,1.9-8.9,7.6-13.3,13.4-17.5,3.2-2.3,4-5.9,1.8-8.4a41.72,41.72,0,0,0-3.8-3.4C83,16.7,80,12.8,79.9,7.4a17.14,17.14,0,0,1,2.5,2.2c3.2,3.9,6.9,6.2,12.3,6.1,2.1,0,4.2,2.4,6.3,3.7C99.6,28.3,96.8,36,88.3,41.1c-7,4.2-7.8,9.5-4.2,16.8,3,6.1,2.8,7-2,12-4.4,4.5-6.1,9.8-3.9,15.8,2.4,6.8,1.9,13-2.8,18.7C67.9,113.4,62.3,123.6,60.3,135.4Zm14.5-81c-1.1,4.7-5.9,8.3-.1,11.9C81,62.8,75.7,59.1,74.8,54.4Z" transform="translate(-8.41 -4.74)"/><path class="cls-3" d="M79.9,7.4c.1,5.4,3,9.2,6.8,12.7a40.21,40.21,0,0,1,3.8,3.4c2.2,2.5,1.4,6.1-1.8,8.4-5.9,4.2-11.5,8.6-13.4,17.5-2.4-8.7-7.9-13.4-14-17.7-4-2.8-3.6-6.6.2-9.9C65.7,18,69.7,14,70.7,8.1a7.47,7.47,0,0,0-.3-2c2.9-.9,5.8-2.5,8.8-.1.3.3.5.6.8.9A1.09,1.09,0,0,1,79.9,7.4Z" transform="translate(-8.41 -4.74)"/><path class="cls-2" d="M79.8,6.8c-.3-.3-.5-.6-.8-.9A6.47,6.47,0,0,1,79.8,6.8Z" transform="translate(-8.41 -4.74)"/><path class="cls-4" d="M74.8,54.4c1,4.7,6.2,8.4-.1,11.9C68.9,62.7,73.6,59.1,74.8,54.4Z" transform="translate(-8.41 -4.74)"/></svg>