<svg id="Calque_1" data-name="Calque 1" xmlns="http://www.w3.org/2000/svg" viewBox="0 0 131.34 142.31"><defs><style>.cls-1{fill:#ddcbab;}.cls-2{fill:#96b296;}</style></defs><title>Oignon</title><path class="cls-1" d="M99.9,31.5a16.15,16.15,0,0,0,3.3,2C115,38,125.5,44,132.7,53.6c11,14.7,9.5,34.1-4.3,47-5.1,4.7-11.3,8.6-17,12.8A57.92,57.92,0,0,0,96,129.7c-3,4.9-2.8,7.4-5.1,11.6-.8,1.4-1.9,3.3-4,3.7-2.4.5-4.9-1.1-5.4-1.4-2.7-1.7-2.9-4-4.2-3.9-.8.1-1,.9-2.7,2.8-.9,1-1.8,1.8-2.3,2.3a4.73,4.73,0,0,1-4.9,1.8,4.15,4.15,0,0,1-3.4-3.3,54.15,54.15,0,0,0-13.6-20.1c-5.3-4.9-6.3-5.7-15.5-10.6-11.6-6.3-20.7-14.4-24.4-26-5-15.7.2-29.3,13.9-40.2,5.7-4.5,12.7-7.6,19.1-11.4a12.88,12.88,0,0,0,1.7-1.6c4.6-1,9.2-2,13.7-3,2.1-.3,4.2-.7,6.3-1l14-.3c2.2.1,4.5.3,6.7.4C90.6,30.1,95.2,30.8,99.9,31.5ZM75.1,117.4c.8.4,5.4-4.4,9-9.7A54.57,54.57,0,0,0,93,78.4s.6-15.1-5.9-27.4a28.3,28.3,0,0,0-9-9.1c-.6-.4-1.3-.8-1.6-.6-.9.6,3.3,5.8,6,11.3A39.48,39.48,0,0,1,86.3,68a59.33,59.33,0,0,1,.1,19.5C83.5,104.6,73.7,116.8,75.1,117.4ZM20.5,66.6c2.3-10.5,10.6-16.3,9.4-17.1-1-.7-7,3-10.6,8.4a21.27,21.27,0,0,0-2.8,6.8,31.72,31.72,0,0,0-.2,14.2c1,4.5,2.6,7.4,5.2,12,3.5,6.2,6.4,11.3,12.4,15.8,5.4,4,11.6,6.2,12,5.7s-3.7-2.7-8.1-6.5A53.63,53.63,0,0,1,24.6,88.8C22.3,84,18.5,75.9,20.5,66.6Zm95-9.7c-2.4-4.9-5.9-10.2-6.7-9.9-1.4.5,12.2,17.4,8.6,36.1-3.4,17.6-20.5,28.4-19.1,29.6,1,.8,9-4.2,14.4-11.2,5.3-6.8,6.4-13.3,7.1-17.7A46.6,46.6,0,0,0,115.5,56.9Z" transform="translate(-8.64 -4.4)"/><path class="cls-2" d="M75.8,25.5c-1.2,1.1-3-.5-7.1,0a14.53,14.53,0,0,0-6.4,2.4c-.1-.3-.1-.6-.2-.8s-.1-.5-.1-.8c-.2-5.2-.3-10.4-.5-15.6,0-.3-.3-2.5.9-3.2.3-.2.8-.4,2.1.1,1.6.6,3.6,3.6,5.2,4.4,1.3.7,1.6-.8,2.1,0C73.5,14.6,78.3,23.2,75.8,25.5Z" transform="translate(-8.64 -4.4)"/><path class="cls-2" d="M76.3,25.5c-1.6.2-1.6-1.9-4.6-3.7a12.79,12.79,0,0,0-5.9-1.6c.2-.3.3-.5.5-.8a4.23,4.23,0,0,0,.5-.7c3.7-4.1,7.4-8.2,11-12.3.2-.2,1.6-2.1,2.9-2,.4,0,.8.1,1.3,1.2.6,1.3-.3,4.7.1,6.2.4,1.2,1.6.2,1.4,1.1C82.7,15.8,79.6,25.1,76.3,25.5Z" transform="translate(-8.64 -4.4)"/></svg>