<?xml version="1.0" encoding="utf-8"?>
<!-- Generator: Adobe Illustrator 23.1.0, SVG Export Plug-In . SVG Version: 6.00 Build 0)  -->
<svg version="1.1" id="Calque_1" xmlns="http://www.w3.org/2000/svg" xmlns:xlink="http://www.w3.org/1999/xlink" x="0px" y="0px"
	 viewBox="0 0 146 117" style="enable-background:new 0 0 146 117;" xml:space="preserve">
<style type="text/css">
	.st0{fill:#C1B093;}
	.st1{fill:#A08E73;}
	.st2{fill:#87675B;}
	.st3{fill:#5D4037;}
	.st4{fill:#5E4138;}
	.st5{fill:#DDCBAB;}
	.st6{fill:#C1AD91;}
	.st7{fill:#3E2723;}
</style>
<title>Patate</title>
<path class="st0" d="M0.8,48.9c1.6-6.1,5.6-10,10.5-12.9c3-1.7,6.1-3,9.1-4.5c5.8-2.8,11.5-5.7,17.3-8.5c4.7-2.2,9.3-4.8,14.2-6.4
	c13.6-4.6,22.5,3.4,26.9,15.5c2.3,6.4,2.5,13.4,0.5,20c-0.5,0.3-0.9,0.6-1.3,1C73,59.7,66.1,64.4,58.2,66.9
	c-8.8,2.8-18.2,3.4-27.2,1.7C22.6,67,14.6,63.9,8,57.7C5.3,55.2,3.2,51.9,0.8,48.9z M67.4,38.3l0.3-0.8c-0.5-0.8-0.9-2.1-1.7-2.4
	c-0.5-0.2-1.9,0.6-2.1,1.2c-0.1,0.9,0.3,1.8,1,2.4C65.4,39,66.5,38.4,67.4,38.3z M60.7,55.9c-1.1,0.2-1.8,1.3-1.6,2.5
	c0.1,0.3,0.2,0.6,0.4,0.8c0.1,0.1,0.2,0.3,0.4,0.4c1,0.6,1.8,0.2,2.3-1.1s0.2-2.3-0.9-2.5C61,55.9,60.8,55.9,60.7,55.9z M17.1,61.1
	l2.9-1.7c-0.3-0.9-0.8-1.8-1.4-2.6c-0.3-0.3-1.7,0.4-2,0.9S16.8,59.5,17.1,61.1z"/>
<path class="st1" d="M0.8,48.9c2.4,3,4.5,6.2,7.2,8.8c6.6,6.2,14.5,9.3,22.9,10.8c9.1,1.7,18.4,1.1,27.2-1.7
	c7.9-2.4,14.8-7.2,19.9-13.7c0.4-0.4,0.8-0.7,1.3-1c-4.9,18.8-23.3,38.7-50.7,34.7c-0.8-0.1-1.6-0.3-2.5-0.5l-0.9-0.2l-2-0.5
	l-7.4-3.1C4.4,76.5-1.7,64,0.4,50.4C0.5,49.9,0.7,49.4,0.8,48.9z"/>
<path class="st2" d="M15.8,82.5l7.4,3.1L15.8,82.5z"/>
<path class="st2" d="M25.3,86.1l0.9,0.2L25.3,86.1z"/>
<path class="st3" d="M67.4,38.3c-0.8,0.2-1.9,0.8-2.5,0.4c-0.7-0.6-1.1-1.5-1-2.4c0.2-0.6,1.6-1.4,2.1-1.2c0.7,0.3,1.1,1.5,1.7,2.4
	L67.4,38.3z"/>
<path class="st4" d="M59.5,59.2c-0.7-0.9-0.6-2.2,0.3-2.9c0.3-0.2,0.6-0.4,0.9-0.4c0.2,0,0.3,0,0.5,0c1.1,0.3,1.4,1.3,0.9,2.5
	s-1.3,1.8-2.3,1.1C59.7,59.5,59.6,59.4,59.5,59.2z"/>
<path class="st4" d="M17.1,61.1c-0.3-1.6-0.7-2.7-0.4-3.3s1.7-1.2,2-0.9c0.6,0.8,1.1,1.6,1.4,2.6L17.1,61.1z"/>
<path class="st5" d="M39.6,80.1c-0.6-9.2,2.9-16.7,8.2-23.3c3.2-3.9,6.8-7.4,10.2-11.1c6.4-7,12.8-14.1,19.3-21.1
	c5.3-5.7,10.3-11.7,16.1-16.7c16-13.8,31.4-7.9,42.8,5.9c6.2,7.5,9.1,16.6,9.7,26.7c-0.5,0.7-0.9,1.4-1.2,2.1
	c-3.9,11.6-10.9,21.9-20.4,29.7c-10.2,8.6-22.4,14.7-35.6,17.5c-11.9,2.6-23.9,2.9-35.5-1.8C48.4,86,44.1,82.7,39.6,80.1z
	 M85.3,76.8c2.4,0,4.3-2,4.3-4.4c0-2-2.2-4.3-4.1-4.3c-2.2-0.1-4.1,1.7-4.2,4c0,0.2,0,0.3,0,0.5C81.4,75.1,83,76.8,85.3,76.8z"/>
<path class="st6" d="M39.6,80.1c4.5,2.7,8.8,5.9,13.6,7.8c11.6,4.7,23.6,4.4,35.5,1.8c13.1-2.9,25.3-8.9,35.6-17.5
	c9.4-7.8,16.5-18.1,20.4-29.7c0.3-0.7,0.8-1.4,1.2-2.1c1.9,28.1-13.6,65.3-52,75.3c-1.2,0.3-2.3,0.4-3.5,0.6l-1.2,0.2l-3,0.4H74.8
	c-18-1.6-31.7-15.2-35-34.7C39.7,81.6,39.6,80.8,39.6,80.1z"/>
<path class="st2" d="M74.8,117L74.8,117z"/>
<path class="st2" d="M89.1,116.6l1.2-0.2L89.1,116.6z"/>
<path class="st3" d="M85.3,76.8c-2.3,0-3.9-1.7-4-4.2c-0.2-2.2,1.4-4.2,3.6-4.4c0.2,0,0.3,0,0.5,0c2,0,4.1,2.3,4.1,4.3
	C89.6,74.8,87.7,76.8,85.3,76.8z"/>
<path class="st7" d="M90.2,103.5c0,1.4-0.7,2.2-2,2.1s-1.8-0.8-1.8-2.2s0.7-2.2,2-2.1S90.2,102.2,90.2,103.5z"/>
</svg>
