<svg id="Calque_1" data-name="Calque 1" xmlns="http://www.w3.org/2000/svg" viewBox="0 0 140.94 136.45"><defs><style>.cls-1{fill:#7c2e2e;}.cls-2{fill:#96b296;}</style></defs><title>Piment</title><path class="cls-1" d="M133.2,91.4c-.7,7.7-7,14.5-15.7,16.4A148.47,148.47,0,0,1,83,129.7,154,154,0,0,1,31.3,143a36.32,36.32,0,0,1-12.4.5c-2.8-.4-4.9-.6-7.2-1.9A14.7,14.7,0,0,1,4.5,129c.3-8.8,11.1-13.8,14.1-15.2,7.9-3.7,11.6-1.5,18.4-3.8,5.7-1.9,13.4-6.7,20.3-20.4C62.7,79.2,68,68.8,73.4,58.4c2.3-7.8,6.9-13.9,11.8-14.2,3.4-.2,4.7,2.5,12.1,4.8a6,6,0,0,1,3.3,2.1,6.38,6.38,0,0,1,.9,3.9c-.8,9.6-2.8,17.9-.1,19.9.5.4,1,.3,4,0,11.7-1.2,15.1-.9,18,.1a16.32,16.32,0,0,1,3.5,1.6C127.8,77.4,133.9,83.1,133.2,91.4Z" transform="translate(-4.49 -7.37)"/><path class="cls-2" d="M133.2,93.5c-2.1-5-4.2-10-6.4-15a14.18,14.18,0,0,0-3.6-1.6c-2.9-.9-6.4-1.3-18.3-.1-3.1.3-3.6.4-4.1,0-2.7-2-.7-10.5.1-20.2a5.23,5.23,0,0,0-.9-3.9,6.36,6.36,0,0,0-3.4-2.2,84.92,84.92,0,0,1-12.3-4.9c-.9-.4-1.7-.9-2.5-1.3-1.3-.3-2.8-.7-2.9-1.6-.5-2.5,9.8-9.1,20.8-9.2s17.4,6.3,21.1,3c2.4-2.1,2.2-7,2.1-9.1a19.73,19.73,0,0,0-1.6-6.7c-.6-1.3-1.5-2.5-2-3.9a6.76,6.76,0,0,1,7.5-9.3,7.68,7.68,0,0,1,4.2,2.9,26,26,0,0,1,5.9,17.1,31.71,31.71,0,0,1-2.5,12.2,6.63,6.63,0,0,0-.7,3.8,6.13,6.13,0,0,0,2,3.4c3.1,3,11.5,18.5,9.4,32.7a32.76,32.76,0,0,1-6.6,15.2c-.4,1.8-1.5,3.1-2.5,3.1C134.5,97.9,132.9,96.1,133.2,93.5Z" transform="translate(-4.49 -7.37)"/></svg>