<svg id="Calque_1" data-name="Calque 1" xmlns="http://www.w3.org/2000/svg" viewBox="0 0 137.96 141.35"><defs><style>.cls-1{fill:#7aa943;}.cls-2{fill:#e6ead8;}.cls-3{fill:#8bc24a;}.cls-4{fill:#8aa143;}</style></defs><title>Poireau</title><path class="cls-1" d="M103.6,60.3c-.7.7-13,9.9-13.7,10.6-2.4,1.3-4.9,2.6-7.3,4-4.8,2.8-9.5,5.8-14.2,8.7a.88.88,0,0,1-.1-.7c1.3-3.4,2.6-6.7,3.9-10.1.9-2.4,1.7-4.9,2.5-7.3.7-2.1,1.5-4.1,2.3-6.2.1-.2.3-.3.4-.5.8-1,1.6-1.9,2.4-2.9.6-.7,7.1-7.9,7.7-8.6m-.2,0c.4-.6.8-1.1,1.2-1.7.1-.2.2-.3.3-.5.9-1.2,1.7-2.3,2.6-3.5a13,13,0,0,1,1-1.5c6.3-7.2,11.2-15.3,15.7-23.5C110.2,12.9,112,9,114,5c1.2.7,2.4,1.3,3.6,2,2.5,1.4,5,2.9,7.5,4.3.8.4.9.9.6,1.7a122.41,122.41,0,0,1-11.6,21.7,39.56,39.56,0,0,0-2.2,3.4,17.41,17.41,0,0,1-1.2,1.4c.1.1.2.1.3.2.6-.4,1.1-.7,1.7-1.1s1.1-.7,1.6-1c.1-.1.2-.1.2-.2s.1,0,.2-.1c.7-.4,1.4-.8,2-1.2a.35.35,0,0,0,.2-.1c.3-.2.6-.3.9-.5.8-.5,1.5-.9,2.3-1.4.4-.2.9-.5,1.3-.7.6-.3,1.1-.7,1.7-1,.2-.1.3-.1.5-.2s.5-.3.7-.4.5-.3.7-.4.5-.3.7-.4a5.74,5.74,0,0,0,.7-.4h0c.3-.2.6-.3.9-.5s.8-.5,1.2-.7.7-.3,1-.5a.76.76,0,0,1,.4-.2c.3-.1.5-.3.8-.4s.4-.3.6-.4.3-.1.5-.2c.7-.4,1.4-.7,2.2-1.1a18.65,18.65,0,0,0,2-1c.2-.1.3-.2.5-.3l.6-.3c.4.3,1,.6,1.2,1,1.9,3.2,3.6,6.4,5.5,9.6.6,1-.2,1.3-.9,1.7-4.8,2.5-9.5,5.1-14.2,7.6-.4.2-.8.5-1.3.8-1.1.6-2.2,1.3-3.3,1.9-.4.2-.7.4-1.1.6a5.58,5.58,0,0,0-.8.5c-.1,0-.1,0-.1.1-1.2.7-2.3,1.3-3.5,2a1.38,1.38,0,0,1-.4.3c-.9.5-1.8,1-2.6,1.5-.3.2-.7.5-1,.7-1.2.7-2.3,1.5-3.5,2.2-.2.1-.3.2-.5.3s-.5.3-.8.5-.5.3-.8.5c-1.8,1.2-3.7,2.4-5.5,3.6" transform="translate(-6.05 -5)"/><path class="cls-2" d="M13.7,132.7c9.5-10.5,19.1-21,28.6-31.4,1.1,1.5,2.1,3.1,3.2,4.6,1.8,1.8,3.5,3.6,5.3,5.4C38.9,122.9,26.9,134.5,15,146.2c-6.4,1-9.7-3.2-8.8-6.8C6.8,136.7,9.9,133.9,13.7,132.7Z" transform="translate(-6.05 -5)"/><path class="cls-3" d="M44,118.4c-.4.4-.9.7-1.3,1.1h-.5a6.08,6.08,0,0,1,.1-1.9,22.56,22.56,0,0,1,1.1-2.2c.7-1.6-.3-3-2.2-2.9a12.82,12.82,0,0,0-2.7.5c-1.5.4-1.7.3-1.9-1.1v-1c0-1.3-.9-2-1-2.8v-.4c.3-1.3,2.7-2.2,6.4-5,1.1-.8.9-.8,2.9-2.4,3.6-2.7,7.1-5.4,10.7-8,4.2-3,8.5-5.8,12.7-8.7,4.7-2.9,9.4-5.8,14.2-8.7,2.4-1.4,4.8-2.7,7.3-4,2.1-1.1,4.3-2.3,6.4-3.4,2.9-1.5,5.9-3,8.9-4.5l.3-.3,9.6-4.5a.76.76,0,0,1,.4-.2c2.5-1.1,5.1-2.2,7.6-3.3l.6-.3c.5-.2,1.1-.4,1.6-.6s1.1-.5,1.7-.8a8.8,8.8,0,0,1,1.5-.5,1.69,1.69,0,0,1,.2.5c-1.8,2.1-1.3,4.2-.2,6.3.9,1.7,1.9,3.3,3,5.1l-1.5.6c-8.4,3.4-16.9,6.5-25.1,10.1a181.92,181.92,0,0,0-43.3,26.4c-3.4,2.8-6.6,6-9.9,9l-.4.4c-2,2-4,4.1-5.9,6.1C44.8,117.5,44.4,118,44,118.4Z" transform="translate(-6.05 -5)"/><path class="cls-3" d="M75.8,56.1c.4,1.1.8,2.1,1.2,3.2-.8,2.1-1.6,4.1-2.3,6.2-.9,2.4-1.6,4.9-2.5,7.3-1.3,3.4-2.6,6.7-3.9,10.1-.1.2.1.5.1.7-4.2,2.9-8.5,5.7-12.7,8.7-3.6,2.6-7.2,5.3-10.7,8-1,.8-1.9,1.6-2.9,2.4C45,96.8,48,90.9,50.8,85c7.5-15.7,13.9-31.7,17.9-48.5C70,31,70.9,25.5,72,20a22.31,22.31,0,0,1,.4-2.3,13.35,13.35,0,0,0,1.2.6,1.76,1.76,0,0,1,.5.4c3.2,2.8,7.3,3.7,11.6,4.6-.7,3.7-1.4,7.3-2.1,10.9-.4,1.7-.9,3.4-1.3,5.1" transform="translate(-6.05 -5)"/><path class="cls-4" d="M13.3,121.7" transform="translate(-6.05 -5)"/></svg>