<svg id="Calque_1" data-name="Calque 1" xmlns="http://www.w3.org/2000/svg" viewBox="0 0 130.95 137.53"><defs><style>.cls-1{fill:#568b2f;}.cls-2{fill:#5d6d35;}.cls-3{fill:#a5d15c;}.cls-4{fill:#94c05c;}</style></defs><title>Pois</title><path class="cls-1" d="M33.6,138.8a16.18,16.18,0,0,0-1.8,1c-3.2-1.6-6.2-3.4-9.5-4.7S15.4,133,12,132c-1-.3-1.9-.7-2.8-1,.9-.8,1.7-2,2.8-2.5,5.9-2.7,11.9-4.9,17.6-7.9,13.7-7.2,26.1-16.6,38-26.8C84.7,79.1,99.3,62,112.5,43.4c1.8-2.5,3.7-4.9,5.6-7.3,2.5-1.8,4.9-3.6,7.5-5.4,1.2,2.1,2.2,3.9,3.3,5.8.1-.3.2-.7.3-1,1.4-.1,3.6-.8,4.1-.1a66.32,66.32,0,0,1,4,8c-.2.3-.6.6-.7,1-.5,3.5-.8,7-1.4,10.4-2,10.8-6.6,20.4-12.4,29.5a145.27,145.27,0,0,1-20.3,24.5c-1.8,1.8-3.7,3.7-5.6,5.4-4.4,3.8-8.7,7.8-13.4,11.3a79.42,79.42,0,0,1-22.3,11.7c-3.5,1.1-7.3,1.5-10.9,2.2" transform="translate(-9.2 -6.3)"/><path class="cls-2" d="M140.1,42c.2,2.5-.3,5.6-.8,5.7-.3,0-.4-.7-1.3-2.7a21.05,21.05,0,0,0-2.4-4.4c-1.1-1.5-1.7-2.3-2.7-2.5a8.12,8.12,0,0,0-3.1.6c-1.4.4-1.6.6-1.9.6-1,.1-2.6-1-4.8-6.6-7.6,5.8-9.2,5.9-9.5,5.4-.8-.9,2-6.3,6.4-9,3.6-2.2,5.3-.9,7.4-3.1,1.2-1.3,1.7-2.9,2.7-10.7.5-3.6.8-6.7,1-9h1.1a14.26,14.26,0,0,1,.9,2.7c.2,5.1.3,8.4.2,12.1a28.28,28.28,0,0,0,1.8,10.6C139.3,36,140,40,140.1,42Z" transform="translate(-9.2 -6.3)"/><path class="cls-3" d="M81.2,107.2c-1.2-1.8-2.9-3.3-3.5-5.3A16.42,16.42,0,0,1,90.8,81.1a12.22,12.22,0,0,1,12.8,7.5c0,.3-.2.7-.1,1,1.2,4,.1,7.7-1.6,11.3C98.1,108.7,88.6,111.9,81.2,107.2Z" transform="translate(-9.2 -6.3)"/><path class="cls-3" d="M56.7,126.6c-4-2.7-4.8-11.3-2.1-16.3,4.8-8.8,13.4-11.5,21-6.4,1.4,1,2.2,3.1,3.3,4.7.1.7.2,1.3.3,2,1,6.5-2.8,14.5-8.9,17.3C65.4,130,61,129.1,56.7,126.6Z" transform="translate(-9.2 -6.3)"/><path class="cls-3" d="M102.2,83.3c-4.3-3.6-4.7-8.7-3.4-13.9a14.15,14.15,0,0,1,9.6-10.2,13.48,13.48,0,0,1,9.7.4c.7.4,1.4.8,2,1.2,1,1.6,2,3.1,3,4.7,0,1.3.1,2.5.1,3.8,0,8.9-7.2,16.3-15.4,15.5A24.57,24.57,0,0,1,102.2,83.3Z" transform="translate(-9.2 -6.3)"/><path class="cls-3" d="M43.6,139.8c-3.6,1.2-6.8.2-10.1-1-3-2.4-3.9-5.9-3.2-9.9.9-5,3.3-8.9,8.1-10.8s11.9-.6,13.7,5.9a2.54,2.54,0,0,0-.2,1.2C52.5,132.2,49.8,137,43.6,139.8Z" transform="translate(-9.2 -6.3)"/><path class="cls-3" d="M117.4,57.2c-3.4-1.7-3.9-5.2-3.5-8.6.9-8.9,9.8-13.9,16.7-9.5,1.5,1,2.3,3.1,3.4,4.7a14.53,14.53,0,0,1-.3,3c-.7,2.2-1.1,4.8-2.4,6.6C127.3,58.8,123.2,59.7,117.4,57.2Z" transform="translate(-9.2 -6.3)"/><path class="cls-4" d="M22.8,135.3c.6-.3,7.7,2.4,8.3,2.1a13.05,13.05,0,0,0,4.9,1.4,26,26,0,0,0,5.2-.4c3.3-.4,4.1-.3,6.6-.5a61.21,61.21,0,0,0,10.9-2.2C68.8,132.8,76.9,127,81,124c4.7-3.4,9-7.4,13.4-11.3,1.9-1.7,3.8-3.6,5.6-5.4a149.34,149.34,0,0,0,20.3-24.5,84.24,84.24,0,0,0,12.4-29.5,79.55,79.55,0,0,0,1.4-10.4c-.3-2.3-.2-4.2.3-4.4s1.5,1.3,2.4,3.5a86.1,86.1,0,0,1-5.3,34.7c-5.2,14-12.2,23-19.5,30.7-10.7,11.3-22.2,21.4-35.5,28.9-4.4,2.5-16.4,8-27.1,7.5a50.13,50.13,0,0,1-11.9-2,73.28,73.28,0,0,1-7.2-2.8A58.23,58.23,0,0,1,22.8,135.3Z" transform="translate(-9.2 -6.3)"/></svg>