<svg id="Calque_1" data-name="Calque 1" xmlns="http://www.w3.org/2000/svg" xmlns:xlink="http://www.w3.org/1999/xlink" viewBox="0 0 117.74 142.73"><defs><style>.cls-1{fill:#020201;}.cls-2{fill:url(#Dégradé_sans_nom);}.cls-3{fill:#96b296;}</style><radialGradient id="Dégradé_sans_nom" cx="33.81" cy="19.79" r="131.32" gradientTransform="matrix(1.09, 0, 0, -1, -6.57, 150)" gradientUnits="userSpaceOnUse"><stop offset="0.67" stop-color="#f2f2f2"/><stop offset="0.67" stop-color="#efdae2"/><stop offset="0.67" stop-color="#e9b1c5"/><stop offset="0.67" stop-color="#e48bab"/><stop offset="0.67" stop-color="#e06b95"/><stop offset="0.68" stop-color="#dc4f83"/><stop offset="0.68" stop-color="#d93974"/><stop offset="0.68" stop-color="#d72868"/><stop offset="0.69" stop-color="#d51d60"/><stop offset="0.69" stop-color="#d4165b"/><stop offset="0.71" stop-color="#d4145a"/></radialGradient></defs><title>Radis</title><path class="cls-1" d="M103.9,47.3l.3.3" transform="translate(-16.3 -4.17)"/><path class="cls-2" d="M108.8,51.4a51.54,51.54,0,0,1,4.9,6.1c.5.7.9,1.4,1.1,1.7,1.1,1.7,2,3.4,3.1,5.2.9,2.4,1.8,4.9,2.6,7.3v.6A42.85,42.85,0,0,1,115,98.8a19.88,19.88,0,0,1-2.8,3.5,10.59,10.59,0,0,0-1.2,1,50.5,50.5,0,0,1-5.7,3.8,28.68,28.68,0,0,1-3.4,1.8,33.44,33.44,0,0,1-5.8,2c-.8.2-1.3.3-2,.5a20.86,20.86,0,0,1-4,.3,22.55,22.55,0,0,1-5,.7c-1.8.1-1.9-.1-4.4,0-1.1,0-2.1.1-3.7.1H75.1c-1.7-.1-3.8-.1-6.7-.2a6.64,6.64,0,0,1-1.3.1c-5.8-.1-11.4,1.4-16.9,3a12.22,12.22,0,0,0-7.3,6c-1,1.7-1.9,3.4-2.8,5.2a14.74,14.74,0,0,1-6.3,6.3,55.18,55.18,0,0,0-6.6,4,51.24,51.24,0,0,0-4.9,4.4c-1.9,1.8-3.7,3.7-5.5,5.6a1,1,0,0,1-.5-.4c.5-.8.9-1.7,1.4-2.5a29.92,29.92,0,0,1,7.2-9.5,13.1,13.1,0,0,0,4.8-10.6c-.1-4.2,2.1-7.8,4.5-11.3,1.4-2.1,2.8-4.1,4.1-6.2a12.35,12.35,0,0,0,1.7-7q0-3.6.3-7.2a24.36,24.36,0,0,0-1.4-9.6c-.9-2.6-1.7-5.3-2.5-7.9-.1-.2-.1-.4-.2-.6a2.09,2.09,0,0,0-.4-.6v-.1c0-.2-.1-.3-.1-.5l.1-.1a31.06,31.06,0,0,0-.4-3.2,3.75,3.75,0,0,0-.1-1c.1-1.6.2-3.1.3-4.7.1-.7.3-1.5.4-2.2a37.27,37.27,0,0,1,4.9-10.5c6.3-8.9,15.3-13.6,26.6-14.7a47.8,47.8,0,0,1,9.1-.1,51.8,51.8,0,0,1,23.2,8A46.18,46.18,0,0,1,108.8,51.4Z" transform="translate(-16.3 -4.17)"/><path class="cls-3" d="M128.5,31c-3.3.4-5.9,2.4-14.8,5.3A117.89,117.89,0,0,1,98.8,40a4.33,4.33,0,0,0,.1.5c.1.1.2.3.3.4,3,2.5,6,5,8.9,7.6.1.2,1,1.4,3.9.8a16.9,16.9,0,0,0,4.3-1.6c3-1.5,5.2-4.4,7.9-5.9,2.3-1.3,3.8-.8,4.4-1.6C130.7,37.8,135.3,30.2,128.5,31Z" transform="translate(-16.3 -4.17)"/><path class="cls-3" d="M88.5,37.5c1.5,1.5,2.7.3,6.9,1.9a28.72,28.72,0,0,1,7,4.1,2.2,2.2,0,0,0-.1-.8c0-.3-.1-.5-.1-.8-1.4-5.3-2.8-10.6-4.2-16a6,6,0,0,0-1.8-3.5,2.54,2.54,0,0,0-2-.5c-1.4.2-2.4,2.8-3.7,3.2-1.1.4-1.8-1.2-2.1-.6C87.5,26.9,85.3,34.5,88.5,37.5Z" transform="translate(-16.3 -4.17)"/><path class="cls-3" d="M98.1,40.3c-.1,2.4,3.7-.7,7.3.8,2.4,1,3.4,3.4,3.8,5.6.4-.6.8-1.1,1.2-1.7s.7-1.1,1.1-1.6c6.5-10.7,13-21.3,19.5-32,.4-.6,3.4-5.1,3-6.7-.1-.4-.3-.9-2.3-.1-2.4,1-8.1,7-10.8,8.6-2.2,1.3-.7-1.8-2.2-.2C113.8,18.1,98.2,35.4,98.1,40.3Z" transform="translate(-16.3 -4.17)"/></svg>