<svg id="Calque_1" data-name="Calque 1" xmlns="http://www.w3.org/2000/svg" viewBox="0 0 138.73 142.01"><defs><style>.cls-1{fill:#860000;}.cls-2{fill:#96b296;}</style></defs><title>Tomate</title><path class="cls-1" d="M117.5,43.5c3.1,1.6,6.7,2.8,9.4,5,10.1,8.2,15.4,19.2,16.7,32.3,1.2,12-.3,23.6-6.4,34.1-7.7,13.1-19.3,21.5-33.4,26-22.8,7.3-45.5,7.2-67.2-3.5C13.1,125.9,2.4,105.7,5.9,79,8,62.7,16,50.7,30.7,43.4c.3-.2.5-.5.8-.7,4.4,3.6,9-1,13.9.4a81.41,81.41,0,0,0-4.1,7.7c-.6,1.5-.3,3.3-.4,5,1.7,0,3.5.6,4.9,0C54.5,52.1,63,48,71.6,44.4a8,8,0,0,1,5.7,0c8.6,3.6,16.9,7.7,25.5,11.3,1.6.7,3.7.1,5.6.1-.3-1.9-.3-3.9-1.1-5.7a55.85,55.85,0,0,0-3.5-6.5C108.6,43.5,113,43.5,117.5,43.5Z" transform="translate(-5.25 -3.96)"/><path class="cls-2" d="M117.5,43.5H103.8a49.71,49.71,0,0,1,3.5,6.5c.7,1.7.7,3.8,1.1,5.7-1.9,0-4,.6-5.6-.1C94.3,52,85.9,48,77.3,44.3a8,8,0,0,0-5.7,0C63,48,54.5,52.1,45.8,55.8c-1.4.6-3.3,0-4.9,0,.1-1.7-.2-3.5.4-5a81.41,81.41,0,0,1,4.1-7.7c-4.9-1.4-9.5,3.1-13.9-.4-.7-2.9,1.1-4.2,3.1-5.6,9.2-6.5,19.5-9.3,30.4-10.7.8-.1,1.6-.2,2.6-.4-.1-4.9-2.8-8.1-5.9-11a6.32,6.32,0,0,1,3-11c2.1-.3,4.9,1,6.7,2.5a27.49,27.49,0,0,1,9.3,17.4c.1.6.2,1.2.3,1.9,4.9,1,9.7,1.9,14.6,2.8,7.2,1.4,13.5,4.9,19.7,8.8C117.5,39,118.5,40.7,117.5,43.5Z" transform="translate(-5.25 -3.96)"/></svg>